<svg width="260" height="99" viewBox="0 0 260 99" fill="none" xmlns="http://www.w3.org/2000/svg">
<path d="M39.5625 55.5H34.8281C34.2812 55.5 33.8438 55.375 33.5156 55.125C33.1875 54.8594 32.9453 54.5312 32.7891 54.1406L30.8203 48.0234H19.3594L17.4141 54.1172C17.2891 54.4609 17.0469 54.7812 16.6875 55.0781C16.3438 55.3594 15.9141 55.5 15.3984 55.5H10.5938L21.9375 24.375H28.2188L39.5625 55.5ZM20.7422 43.7109H29.4141L26.25 33.8672C26.0625 33.3828 25.8672 32.8203 25.6641 32.1797C25.4609 31.5234 25.2578 30.8125 25.0547 30.0469C24.8672 30.8125 24.6719 31.5234 24.4688 32.1797C24.2656 32.8359 24.0781 33.4062 23.9062 33.8906L20.7422 43.7109ZM58.7812 55.5C58.4219 55.5 58.1094 55.4141 57.8438 55.2422C57.5938 55.0547 57.4297 54.7812 57.3516 54.4219L56.8359 52.3359C55.9141 53.3828 54.8594 54.2344 53.6719 54.8906C52.4844 55.5312 51.0938 55.8516 49.5 55.8516C48.2656 55.8516 47.1328 55.5859 46.1016 55.0547C45.0703 54.5234 44.1797 53.75 43.4297 52.7344C42.6953 51.7188 42.1172 50.4766 41.6953 49.0078C41.2891 47.5234 41.0859 45.8281 41.0859 43.9219C41.0859 42.1875 41.3203 40.5859 41.7891 39.1172C42.2578 37.6328 42.9219 36.3516 43.7812 35.2734C44.6406 34.1797 45.6719 33.3281 46.875 32.7188C48.0938 32.0938 49.4453 31.7812 50.9297 31.7812C52.1797 31.7812 53.2422 31.9766 54.1172 32.3672C55.0078 32.7422 55.8047 33.2656 56.5078 33.9375V21.8203H62.4609V55.5H58.7812ZM51.5859 51.1406C52.1328 51.1406 52.6328 51.0859 53.0859 50.9766C53.5547 50.8516 53.9844 50.6797 54.375 50.4609C54.7656 50.2422 55.1328 49.9766 55.4766 49.6641C55.8359 49.3359 56.1797 48.9609 56.5078 48.5391V38.2734C55.9141 37.5234 55.2656 37.0078 54.5625 36.7266C53.875 36.4297 53.1328 36.2812 52.3359 36.2812C51.5703 36.2812 50.8672 36.4375 50.2266 36.75C49.6016 37.0469 49.0625 37.5078 48.6094 38.1328C48.1719 38.7578 47.8281 39.5547 47.5781 40.5234C47.3438 41.4766 47.2266 42.6094 47.2266 43.9219C47.2266 45.25 47.3281 46.375 47.5312 47.2969C47.7344 48.2031 48.0234 48.9453 48.3984 49.5234C48.7734 50.0859 49.2266 50.5 49.7578 50.7656C50.3047 51.0156 50.9141 51.1406 51.5859 51.1406ZM74.2734 32.2266V55.5H68.3203V32.2266H74.2734ZM75 25.5469C75 26.0625 74.8984 26.5469 74.6953 27C74.4922 27.4375 74.2188 27.8281 73.875 28.1719C73.5312 28.5 73.125 28.7656 72.6562 28.9688C72.1875 29.1562 71.6953 29.25 71.1797 29.25C70.6797 29.25 70.2031 29.1562 69.75 28.9688C69.3125 28.7656 68.9219 28.5 68.5781 28.1719C68.25 27.8281 67.9844 27.4375 67.7812 27C67.5938 26.5469 67.5 26.0625 67.5 25.5469C67.5 25.0312 67.5938 24.5469 67.7812 24.0938C67.9844 23.6406 68.25 23.25 68.5781 22.9219C68.9219 22.5781 69.3125 22.3125 69.75 22.125C70.2031 21.9219 70.6797 21.8203 71.1797 21.8203C71.6953 21.8203 72.1875 21.9219 72.6562 22.125C73.125 22.3125 73.5312 22.5781 73.875 22.9219C74.2188 23.25 74.4922 23.6406 74.6953 24.0938C74.8984 24.5469 75 25.0312 75 25.5469ZM96.375 55.5C96.0156 55.5 95.7031 55.4141 95.4375 55.2422C95.1875 55.0547 95.0234 54.7812 94.9453 54.4219L94.4297 52.3359C93.5078 53.3828 92.4531 54.2344 91.2656 54.8906C90.0781 55.5312 88.6875 55.8516 87.0938 55.8516C85.8594 55.8516 84.7266 55.5859 83.6953 55.0547C82.6641 54.5234 81.7734 53.75 81.0234 52.7344C80.2891 51.7188 79.7109 50.4766 79.2891 49.0078C78.8828 47.5234 78.6797 45.8281 78.6797 43.9219C78.6797 42.1875 78.9141 40.5859 79.3828 39.1172C79.8516 37.6328 80.5156 36.3516 81.375 35.2734C82.2344 34.1797 83.2656 33.3281 84.4688 32.7188C85.6875 32.0938 87.0391 31.7812 88.5234 31.7812C89.7734 31.7812 90.8359 31.9766 91.7109 32.3672C92.6016 32.7422 93.3984 33.2656 94.1016 33.9375V21.8203H100.055V55.5H96.375ZM89.1797 51.1406C89.7266 51.1406 90.2266 51.0859 90.6797 50.9766C91.1484 50.8516 91.5781 50.6797 91.9688 50.4609C92.3594 50.2422 92.7266 49.9766 93.0703 49.6641C93.4297 49.3359 93.7734 48.9609 94.1016 48.5391V38.2734C93.5078 37.5234 92.8594 37.0078 92.1562 36.7266C91.4688 36.4297 90.7266 36.2812 89.9297 36.2812C89.1641 36.2812 88.4609 36.4375 87.8203 36.75C87.1953 37.0469 86.6562 37.5078 86.2031 38.1328C85.7656 38.7578 85.4219 39.5547 85.1719 40.5234C84.9375 41.4766 84.8203 42.6094 84.8203 43.9219C84.8203 45.25 84.9219 46.375 85.125 47.2969C85.3281 48.2031 85.6172 48.9453 85.9922 49.5234C86.3672 50.0859 86.8203 50.5 87.3516 50.7656C87.8984 51.0156 88.5078 51.1406 89.1797 51.1406ZM121.477 55.5C120.914 55.5 120.484 55.4219 120.188 55.2656C119.891 55.0938 119.656 54.7578 119.484 54.2578L118.969 52.7109C118.375 53.2266 117.805 53.6797 117.258 54.0703C116.711 54.4609 116.141 54.7891 115.547 55.0547C114.969 55.3203 114.344 55.5156 113.672 55.6406C113.016 55.7812 112.281 55.8516 111.469 55.8516C110.469 55.8516 109.555 55.7188 108.727 55.4531C107.898 55.1719 107.18 54.7656 106.57 54.2344C105.977 53.7031 105.516 53.0469 105.188 52.2656C104.859 51.4688 104.695 50.5547 104.695 49.5234C104.695 48.6641 104.914 47.8047 105.352 46.9453C105.789 46.0859 106.531 45.3125 107.578 44.625C108.641 43.9219 110.047 43.3438 111.797 42.8906C113.562 42.4219 115.758 42.1562 118.383 42.0938V40.8516C118.383 39.3516 118.07 38.25 117.445 37.5469C116.82 36.8438 115.922 36.4922 114.75 36.4922C113.875 36.4922 113.148 36.5938 112.57 36.7969C112.008 37 111.508 37.2266 111.07 37.4766C110.633 37.7109 110.227 37.9297 109.852 38.1328C109.477 38.3359 109.055 38.4375 108.586 38.4375C108.18 38.4375 107.828 38.3359 107.531 38.1328C107.25 37.9141 107.023 37.6562 106.852 37.3594L105.773 35.4844C107.117 34.2344 108.602 33.3047 110.227 32.6953C111.852 32.0859 113.609 31.7812 115.5 31.7812C116.859 31.7812 118.078 32.0078 119.156 32.4609C120.234 32.8984 121.148 33.5234 121.898 34.3359C122.648 35.1328 123.219 36.0859 123.609 37.1953C124 38.3047 124.195 39.5234 124.195 40.8516V55.5H121.477ZM113.32 51.7969C114.383 51.7969 115.297 51.6094 116.062 51.2344C116.844 50.8438 117.617 50.25 118.383 49.4531V45.7031C116.836 45.7656 115.547 45.8984 114.516 46.1016C113.5 46.2891 112.688 46.5391 112.078 46.8516C111.469 47.1484 111.031 47.5 110.766 47.9062C110.516 48.3125 110.391 48.75 110.391 49.2188C110.391 50.1562 110.648 50.8203 111.164 51.2109C111.695 51.6016 112.414 51.7969 113.32 51.7969ZM143.109 36.9141C142.953 37.1797 142.781 37.3672 142.594 37.4766C142.422 37.5703 142.203 37.6172 141.938 37.6172C141.656 37.6172 141.359 37.5469 141.047 37.4062C140.75 37.25 140.414 37.0859 140.039 36.9141C139.68 36.7266 139.266 36.5625 138.797 36.4219C138.328 36.2656 137.789 36.1875 137.18 36.1875C136.242 36.1875 135.516 36.4062 135 36.8438C134.484 37.2656 134.227 37.8359 134.227 38.5547C134.227 39.0391 134.375 39.4453 134.672 39.7734C134.969 40.0859 135.359 40.3672 135.844 40.6172C136.344 40.8516 136.898 41.0703 137.508 41.2734C138.133 41.4766 138.773 41.6953 139.43 41.9297C140.086 42.1641 140.719 42.4453 141.328 42.7734C141.953 43.0859 142.508 43.4766 142.992 43.9453C143.492 44.4141 143.891 44.9844 144.188 45.6562C144.484 46.3281 144.633 47.1328 144.633 48.0703C144.633 49.1953 144.438 50.2344 144.047 51.1875C143.656 52.1406 143.078 52.9609 142.312 53.6484C141.562 54.3359 140.625 54.875 139.5 55.2656C138.391 55.6562 137.102 55.8516 135.633 55.8516C134.883 55.8516 134.141 55.7812 133.406 55.6406C132.672 55.5 131.969 55.3047 131.297 55.0547C130.625 54.7891 129.992 54.4844 129.398 54.1406C128.82 53.7969 128.32 53.4219 127.898 53.0156L129.281 50.7656C129.453 50.5 129.656 50.2891 129.891 50.1328C130.125 49.9766 130.43 49.8984 130.805 49.8984C131.148 49.8984 131.469 49.9922 131.766 50.1797C132.078 50.3672 132.414 50.5781 132.773 50.8125C133.133 51.0312 133.562 51.2344 134.062 51.4219C134.562 51.6094 135.188 51.7031 135.938 51.7031C136.5 51.7031 136.977 51.6328 137.367 51.4922C137.773 51.3516 138.094 51.1641 138.328 50.9297C138.578 50.6797 138.758 50.3984 138.867 50.0859C138.992 49.7734 139.055 49.4531 139.055 49.125C139.055 48.4375 138.797 47.9062 138.281 47.5312C137.766 47.1406 137.117 46.8047 136.336 46.5234C135.555 46.2422 134.711 45.9531 133.805 45.6562C132.914 45.3594 132.078 44.9531 131.297 44.4375C130.516 43.9219 129.867 43.2422 129.352 42.3984C128.836 41.5547 128.578 40.4375 128.578 39.0469C128.578 38.0781 128.758 37.1641 129.117 36.3047C129.477 35.4297 130.008 34.6641 130.711 34.0078C131.43 33.3516 132.312 32.8281 133.359 32.4375C134.422 32.0469 135.656 31.8516 137.062 31.8516C137.828 31.8516 138.57 31.9219 139.289 32.0625C140.008 32.2031 140.68 32.4062 141.305 32.6719C141.945 32.9219 142.523 33.2266 143.039 33.5859C143.57 33.9453 144.039 34.3359 144.445 34.7578L143.109 36.9141Z" fill="white"/>
<path d="M220.249 31.1638L207.796 38.2935L225.115 67.8362H242.094L220.249 31.1638ZM205.209 43.9437L192.758 51.0751L202.584 67.8362H219.442L205.209 43.9437ZM190.357 55.8908L177.906 63.0222L180.729 67.8362H197.474L190.357 55.8908Z" stroke="#DDDDDD" stroke-width="0.5" stroke-linecap="round" stroke-linejoin="round"/>
</svg>
