<svg xmlns="http://www.w3.org/2000/svg" xmlns:xlink="http://www.w3.org/1999/xlink" viewBox="0 0 185 150" width="302px" height="168px"><defs><path id="a" d="M.76 0h152.52v150H.76z"/><path id="c" d="M2.8 1.03c.25 0 .44.2.45.45 0 .24-.22.45-.45.45H1.33a.46.46 0 01-.46-.45c0-.24.22-.45.45-.45"/><path id="e" d="M1.85.69l.01-.03.03-.06a.5.5 0 01.1-.14l.07-.05c.1-.07.23-.07.34-.05.11.03.22.12.27.2.06.1.09.25.05.36a2.34 2.34 0 01-.8 1.04c-.33.24-.75.38-1.16.4-.25.01-.44-.22-.45-.45-.01-.25.22-.44.45-.45h.06l.07-.02.11-.02.1-.04.06-.02-.02.01.08-.04.09-.05.1-.06.02-.01.01-.02.04-.02.02-.02a1.47 1.47 0 00.16-.16L1.7.94c.02-.03.02-.02 0 0l.02-.02.07-.13.05-.1V.7"/><path id="g" d="M1.62.73a.46.46 0 01.63 0c.18.16.17.47 0 .64-.49.48-1.25.68-1.91.46a.46.46 0 01-.32-.55.45.45 0 01.55-.32l.27.06-.07-.01h.27L1.1 1l.13-.04.08-.02.06-.03.11-.07.06-.04.03-.02"/><path id="i" d="M2.5.1c.25 0 .44.2.45.45.01.24-.21.45-.45.45H.93A.46.46 0 01.48.55C.48.3.7.1.93.1"/><path id="k" d="M1.5.28c.1-.07.23-.07.34-.04a.45.45 0 01.32.55.48.48 0 01-.2.27 1.66 1.66 0 01-1.33.22A.45.45 0 01.3.73C.34.63.42.52.51.46.62.4.76.4.87.42c.05 0 .1.02.14.03L.94.42H1.18l.1-.03.04-.01.07-.04"/><path id="m" d="M2.5.06c.25 0 .44.2.45.45 0 .11-.05.24-.13.32a.46.46 0 01-.32.13H1.42A.46.46 0 01.97.51c0-.1.06-.24.14-.32.08-.08.2-.13.31-.13"/><path id="o" d="M.7.38c.12 0 .22.06.31.14L1 .5.95.47l.2.13.04.02.08.03.13.03.07.01H1.76l.1-.03c.24-.07.47.09.55.32.07.23-.1.49-.32.55a1.89 1.89 0 01-1.72-.38C.29 1.08.26.95.25.83.24.71.3.6.38.52"/><path id="q" d="M1.1.43c.47.06.93.16 1.38.33.12.04.2.1.27.2a.45.45 0 01-.5.67 5.47 5.47 0 00-1.18-.3h.02-.07a.44.44 0 01-.08-.02l-.07-.04-.1-.07A.45.45 0 01.65.88C.65.77.7.64.79.56"/><path id="s" d="M2.57 1.3l.04-.06.05-.06c.14-.21.39-.29.61-.17.21.11.3.42.17.62a4 4 0 01-2.3 1.63.46.46 0 01-.55-.31c-.07-.23.1-.5.32-.56l.3-.09.15-.06-.02.01h.01l.02-.01.04-.02c.18-.09.35-.19.52-.3l.06-.05H2l.02-.02-.01.01.01-.01.02-.02h.01l.05-.04a3.91 3.91 0 00.43-.44l.03-.03V1.3h.01l-.01.02V1.3"/><path id="u" d="M1.87 1.32l.22.05c.11.03.2.12.27.21.06.1.07.23.04.35a.45.45 0 01-.2.27.48.48 0 01-.35.04A2.18 2.18 0 01.36 1.11.46.46 0 01.54.5c.2-.13.5-.05.61.16.05.1.1.19.18.28L1.28.89l.06.07.11.1.06.06.09.06.13.08.09.04-.06-.02.1.04-.04-.02"/><path id="w" d="M1.9 2.53c.04-.03-.07.05-.02.02l-.03.02-.05.05-.04.04h-.01l-.03.06-.01.06a.45.45 0 01-.35.34l-.09.01c-.23.02-.46-.21-.45-.45.02-.28.15-.53.36-.72.19-.16.4-.3.6-.45L3.01.6c.2-.15.5-.03.62.16.06.1.07.24.04.35-.03.12-.1.2-.2.26l-1.1.82-.3.21-.12.1-.07.05.02-.02"/><path id="y" d="M1.43 1.7l-.07.1.03-.04-.04.05-.07.12-.06.11a.45.45 0 01-.82-.1.33.33 0 010-.18c0-.06.01-.12.04-.17A2.23 2.23 0 011.3.65c.11-.06.23-.07.35-.05.12.03.2.12.27.21.06.1.08.24.05.35a.46.46 0 01-.21.27 1.9 1.9 0 00-.17.12l.05-.04-.08.06-.1.11-.07.08.04-.05"/><path id="A" d="M.79.06l.08.01c.12.03.2.11.27.21l.03.04.08.1.11.1.08.08.09.06.14.08.09.04.1.04.16.04.11.03h.03l.08.02.07.03.09.07a.45.45 0 010 .64c-.07.07-.21.15-.32.13a2.37 2.37 0 01-.98-.33C.8 1.27.56 1.02.36.73.23.53.33.24.54.12.63.06.77.04.87.07"/><path id="C" d="M2.69.42c.25 0 .44.2.45.45.01.24-.22.45-.45.45H.73A.46.46 0 01.28.87C.27.63.49.42.73.42"/><path id="E" d="M.86.36c.62.08 1.24.12 1.87.12.25 0 .44.2.45.45 0 .24-.22.45-.45.45-.63 0-1.25-.04-1.87-.12a.54.54 0 01-.31-.13A.46.46 0 01.4.8C.41.7.47.57.55.49"/><path id="G" d="M2.5.22A.18.18 0 002.53.2h-.01l.05-.02.05-.02c.23-.11.48-.06.62.16.13.2.05.51-.16.62-.56.27-1.18.4-1.8.36-.25-.02-.44-.2-.45-.45 0-.23.22-.47.45-.45.22.01.43 0 .64-.02h-.04.08L2.1.33 2.27.3l.22-.08h.01-.01"/><path id="I" d="M1.23.63c.12-.03.25 0 .35.05.1.05.18.16.2.27.04.1.03.25-.04.34-.27.4-.62.72-1.03.97a.47.47 0 01-.34.05.46.46 0 01-.27-.21.46.46 0 01-.05-.35c.04-.1.11-.2.21-.27.1-.05.19-.12.28-.19l-.06.04.15-.12.17-.17.14-.17.07-.1a.45.45 0 01.05-.05l.07-.04"/><path id="K" d="M1.02.84c.13-.21.4-.28.62-.16.21.11.28.41.16.62a6.31 6.31 0 00-.42.8V2.1c.02-.02-.02.06-.03.1l-.06.14c-.14.39-.24.79-.3 1.19-.04.25-.34.36-.55.31-.26-.05-.35-.32-.32-.55"/><path id="M" d="M2.27 1.11l.1.07c.16.1.31.2.47.28l.24.1.01.01.04.01.12.05c.24.09.38.3.32.56-.05.22-.33.39-.55.3A4.88 4.88 0 011 1.18a.46.46 0 010-.64c.16-.17.48-.17.64 0a4.47 4.47 0 00.5.48l.04.03h-.01s.06.05.01 0l.1.07"/><path id="O" d="M1.2.46c.11 0 .24.04.31.13l.82.84c.09.1.13.2.13.32a.45.45 0 01-.44.45.46.46 0 01-.32-.13l-.82-.85A.47.47 0 01.75.91C.75.78.8.67.88.58"/><path id="Q" d="M1.96.97c.11-.04.24 0 .34.05.1.05.18.16.21.27.04.12 0 .23-.04.34a2.36 2.36 0 01-.9 1c-.13.1-.28.16-.43.22-.11.05-.25 0-.35-.04a.46.46 0 01-.2-.27.46.46 0 01.04-.35c.03-.05.07-.1.12-.13.04-.04.09-.06.15-.08L.86 2l.1-.05.15-.09.1-.07.09-.07.12-.13.07-.09.05-.07.08-.12.07-.13"/><path id="S" d="M.1 1.14C.24.9.52.88.74.98l.13.06.03.01.02.01H.89l.12.04.12.05a6.33 6.33 0 001.23.31l.1.02c-.11-.01.05 0 .07 0 .25.03.44.19.45.46.01.22-.21.47-.45.45a7.24 7.24 0 01-2.26-.64"/><path id="U" d="M2.23.36c.16-.2.48-.15.64 0 .08.08.13.2.13.32C3 .8 2.94.9 2.87 1a3.8 3.8 0 01-2.3 1.38c-.25.05-.48-.06-.56-.31-.07-.22.09-.51.32-.56.2-.03.4-.09.6-.16L1 1.33l.07-.04.07-.03a3.3 3.3 0 00.52-.32h.01l.01-.01.02-.02h.01l.12-.1"/><path id="W" d="M.54.38C.64.38.8.43.86.5c.08.1.17.19.27.27L1.08.72l.07.06.12.06.08.04.08.03.13.03.09.02h.26c.26-.02.44.23.45.45 0 .11-.05.24-.13.32a.48.48 0 01-.32.13c-.62.05-1.3-.23-1.69-.72A.53.53 0 01.1.83C.1.7.14.6.22.5"/><path id="Y" d="M2.44 1.58l.08-.32c.05-.24.33-.36.55-.3.25.05.36.31.32.54-.2 1.03-1 1.88-2 2.2-.23.08-.47-.09-.55-.31-.07-.24.1-.48.32-.55l.15-.06.03-.01.04-.02.27-.16c.04-.02.08-.07.12-.08l.06-.05.22-.23.05-.06.02-.02c-.01.02-.02.03 0 0l.02-.02v-.01l.02-.03.03-.03.16-.29.03-.06.02-.03v-.02.01-.01"/><path id="aa" d="M1.54 1.6l.05.02c.09.02.17.05.26.06l.04.01h.07l.07.01h.27-.02l.03-.01h.03l.13-.04c.25-.06.48.08.56.32.07.22-.09.49-.32.55-.88.24-1.9-.06-2.48-.78-.16-.2-.18-.45 0-.64.15-.17.49-.19.64 0l.19.2c.02.03.07.1.1.1l-.03-.02v-.01c-.01 0-.01 0 0 0h.01l.06.05.24.14.04.02-.03-.01.04.01h-.01l.11.04"/><path id="ac" d="M2.54.48c.14-.21.4-.28.62-.16.21.11.29.42.16.61a2.38 2.38 0 01-1.97 1.11c-.25 0-.44-.2-.45-.45-.01-.24.21-.45.45-.45.08 0 .16 0 .24-.02l-.07.01.08-.01.13-.04.13-.04.05-.02h.02L1.95 1a1.83 1.83 0 00.26-.15l.02-.02.05-.05.07-.06.14-.16.03-.04"/></defs><g fill="none" fill-rule="evenodd"><g><path fill="none" d="M0 0h185v150H0z"/><g transform="translate(16)"><mask id="b" fill="#fff"><use xlink:href="#a"/></mask><path fill="#DBF1F6" d="M153.29 75.04a73.35 73.35 0 01-6.72 30.83c-.26.57-.53 1.12-.8 1.68l-.74 1.47-.28.53-.01.02a75.1 75.1 0 01-18.02 22.38A76.37 76.37 0 0180.47 150c-25.6-.8-41.54-7.86-54.24-19.05a75.79 75.79 0 01-20.34-28.79c-.28-.74-.57-1.49-.84-2.24A73.98 73.98 0 01.76 75.04C.76 33.59 34.9 0 77.03 0c39.4 0 71.82 29.4 75.84 67.12.28 2.6.42 5.25.42 7.92" mask="url(#b)"/></g><path fill="#FFE773" d="M141.13 48.81c-9.76 0-17.7-7.94-17.7-17.7 0-9.77 7.94-17.71 17.7-17.71 9.77 0 17.71 7.94 17.71 17.7 0 9.77-7.94 17.71-17.7 17.71"/><path fill="#DBF1F6" d="M141.13 10.24a20.9 20.9 0 00-20.87 20.86 20.9 20.9 0 0020.87 20.87A20.9 20.9 0 00162 31.1a20.9 20.9 0 00-20.87-20.86m0 6.31a14.55 14.55 0 110 29.1 14.55 14.55 0 010-29.1"/><path fill="#FFF" d="M137.24 25.88c2.7-2.01 4.07-4.78 3.03-6.17-1.03-1.39-4.07-.88-6.78 1.14s-4.07 4.78-3.04 6.17c1.04 1.4 4.07.88 6.79-1.14"/><path fill="#DEC8BA" d="M161.77 107.55a75.2 75.2 0 01-19.05 24.4A76.37 76.37 0 0196.47 150c-25.6-.8-41.54-7.86-54.24-19.05a75.79 75.79 0 01-17.94-23.4h137.48z"/><path fill="#C5B3A1" d="M85.68 113.5s-37.02 1.46-25.27 13.6c11.76 12.13 56.33 5.81 45.68-12.45-10.65-18.26-20.41-1.15-20.41-1.15"/><path fill="#F8E8CA" d="M119.4 93.13a27.55 27.55 0 10-55.09 0 27.55 27.55 0 0055.1 0"/><path fill="#AB9773" d="M85.92 73.93c-1.39-3.35-3.08-6.4-6.81-7.38a9.51 9.51 0 00-8.7 1.97c-2.42 2.2-3.24 5.71-2.61 8.85.58 2.94 2.97 6.75 6.37 6.72 2.65-.03 3.9-2.9 3.6-5.22-.4-3.26-3.65-4.78-6.6-5.06-1.82-.17-3.97-.1-5.67.59-1.74.7-2.75 2.37-3.55 3.98-1.8 3.63-2.53 8.02-1.04 11.88 1.36 3.5 4.5 6.52 8.36 6.83 3.59.3 7.22-1.74 8.47-5.16.06-.16-.07-.31-.21-.37-2.84-1.1-5.96-.27-8.34 1.53-2.8 2.11-4.33 5.43-5.55 8.63-1.23 3.26-2.71 6.72-.33 9.8 2.07 2.69 5.27 4.85 8.38 6.14 5.93 2.45 13.1 1.27 16.5-4.6a9.42 9.42 0 001.25-3.85c.1-1.16.12-3.01-.95-3.76-1-.69-2.6-.44-3.68-.1a8.37 8.37 0 00-3.65 2.48c-2.4 2.72-2.95 6.47-3.43 9.92-.43 3.08-.3 6.08 2.64 7.8 2.58 1.51 5.91 1.66 8.83 1.75 3.19.1 6.57-.21 9.4-1.83 2.8-1.6 4.46-4.38 5.5-7.36.99-2.88 1.82-6.06 1.88-9.12.05-2.3-.43-4.96-2.5-6.32-.94-.6-2.25-1.01-3.21-.24-.84.68-.95 1.9-.86 2.9.58 5.9 6.15 11.33 12.21 10.61a8.28 8.28 0 006.69-4.87c1.45-3.2 1.19-6.78.83-10.19-.22-2.1-.44-4.2-.32-6.32.02-.38-.58-.38-.6 0-.32 5.71 2.36 12.54-1.25 17.67-1.7 2.4-4.64 3.44-7.5 3.13-2.87-.31-5.35-2-7.02-4.29-.8-1.1-1.44-2.32-1.89-3.6-.42-1.21-1.02-3.02-.23-4.2 1-1.53 3.1-.14 3.87.9a6.61 6.61 0 011.14 3.38c.23 2.43-.31 4.85-.9 7.19-.64 2.6-1.44 5.24-3.04 7.43-3.53 4.8-10.06 4.88-15.44 4.31-2.49-.26-5.57-.82-7.06-3.06-.86-1.3-.88-2.83-.74-4.31.16-1.68.43-3.39.8-5.04.64-2.92 1.9-5.85 4.57-7.47 1.3-.8 4.16-1.81 5.11.07.59 1.16.21 3.13-.16 4.29-1.83 5.61-8 8.23-13.5 7.1a20.2 20.2 0 01-8.97-4.66c-1.24-1.07-2.6-2.3-3.17-3.89-.73-2.01.12-4.15.8-6.05 1.12-3.12 2.35-6.4 4.7-8.83 2.31-2.37 5.82-3.74 9.03-2.49l-.2-.37c-1.06 2.85-3.93 4.63-6.91 4.75-3.12.12-5.94-1.73-7.64-4.26-1.94-2.9-2.3-6.49-1.5-9.84a17.46 17.46 0 011.85-4.67c1.02-1.79 2.3-2.88 4.38-3.2 2.94-.47 6.79-.34 8.87 2.13 1.48 1.76 1.43 5.3-.8 6.5-3.12 1.68-6.12-2.63-6.85-5.17a9.3 9.3 0 011.23-7.91c1.9-2.64 5.4-3.71 8.52-3.12 3.87.74 5.62 3.73 7.02 7.11.15.35.73.2.58-.16"/><path fill="#AB9773" d="M89.2 81.3c-2.27-4.4-1.9-9.62.47-13.92a17.64 17.64 0 017.91-7.43c.91-.43 2.22-1.11 3.26-.82.86.24 1.53 1.13 2.1 1.77 2.1 2.4 3.63 5.3 4.3 8.41.53 2.41.73 6.16-2.1 7.27-1.57.63-3.24-.05-4.28-1.31a4.79 4.79 0 01-.8-4.55c.93-3.08 3.81-5.16 6.62-6.4 1.57-.71 3.24-1.21 4.91-1.65 1.66-.43 3.37-.94 5.07-1.13 1.87-.2 3.31.4 4.63 1.72 1.2 1.21 2.3 2.55 3.21 3.99 1.7 2.7 2.71 6.02 1.03 8.98-1.32 2.3-3.78 3.7-6.17 4.68a42.6 42.6 0 01-7.42 2.11c-1.96.4-7.13 1.11-7.07-2.2.03-1.57 1.62-2.79 2.98-3.2 1.74-.53 3.67-.15 5.36.37 2.8.85 6.54 2.05 8.19 4.67 1.75 2.78.19 6.22-2.01 8.23-2.45 2.23-5.72 3.37-8.8 4.45-1.59.56-3.4 1.3-5.1.76-1.07-.34-2.23-1.4-1.44-2.58.52-.8 1.7-1.09 2.6-1.13a6.58 6.58 0 015.96 3.52c3.01 5.45-1.86 10.17-6.45 12.47-1.4.7-2.86 1.29-4.34 1.78-1.6.54-3.3 1.04-4.95.45-2.4-.86-3.53-3.52-4.06-5.82-.25-1.07-.79-2.86-.17-3.86.73-1.19 2.22-.57 2.77.4.56 1-.05 1.94-.89 2.55a10.13 10.13 0 01-3.6 1.39 51.25 51.25 0 01-10.6 1.44c-1.69.05-3.59.2-5.19-.4-2.88-1.08-3.16-4.4-2.36-6.96 1.67-5.4 6.94-10.17 12.21-11.98 1.05-.36 2.28-.53 2.95.57.43.71.62 1.67.8 2.47.26 1.3.82 4.35-.67 5.25-1.71 1.04-2.97-1.64-3.56-2.76-.9-1.72-1.67-3.5-2.31-5.33-1-2.85-2.01-6.14-1.78-9.2.24-3.16 2.47-5.22 5.54-5.58 2.5-.3 5.29.4 7.23 2.03 2.29 1.92 3.26 4.93 3.26 7.84 0 1.4-.17 2.88-.6 4.2-.52 1.54-2.77 4.1-4.22 1.8-1.6-2.59 1.9-4.73 3.99-5.08a5.31 5.31 0 016.18 3.88c.71 2.79-.71 5.4-2.97 7-2.4 1.68-5.4 2.32-8.29 2.42-.38.01-.38.61 0 .6 3.5-.12 7.32-1.03 9.88-3.57 2.05-2.03 2.83-5.17 1.52-7.81-1.32-2.66-4.29-3.7-7.07-2.97-2.2.57-4.81 2.54-4.06 5.13.37 1.27 1.6 2.12 2.92 1.78 1.3-.33 2.21-1.67 2.64-2.86a13.1 13.1 0 00-.6-10.08 9.49 9.49 0 00-7.42-4.9c-2.87-.34-6.13.46-7.66 3.13-1.9 3.33-.5 7.96.58 11.33.66 2.11 1.51 4.17 2.52 6.14.65 1.29 1.44 3.15 3 3.58 3.7 1 2.8-5.24 2.31-7-.4-1.4-.95-2.89-2.65-2.91-1.72-.03-3.63 1.14-5.05 1.98a21.75 21.75 0 00-7.8 7.7c-1.44 2.45-2.62 5.75-1.22 8.48 1.83 3.57 7.02 2.8 10.3 2.55 2.2-.17 4.41-.48 6.59-.92 1.86-.38 3.98-.74 5.57-1.86.9-.64 1.68-1.65 1.35-2.8-.3-1.07-1.45-2.02-2.59-1.93-3.05.26-1.45 5.4-.83 7.05.98 2.64 3 4.9 6.02 4.76 2-.08 4.03-.97 5.85-1.73 1.8-.76 3.56-1.68 5.12-2.86 2.42-1.84 4.52-4.51 4.4-7.7a7.93 7.93 0 00-4.07-6.62c-1.83-.95-6.44-1.5-6.9 1.44-.19 1.25.92 2.2 1.99 2.6 1.97.73 4.13-.18 5.99-.83 3.58-1.27 7.6-2.74 9.95-5.91 1.96-2.64 2.34-6.25-.15-8.69-1.28-1.25-2.95-2.02-4.59-2.68-1.94-.8-3.98-1.57-6.1-1.7-2.47-.15-6.68 1.4-5.94 4.64.7 3.06 5 2.68 7.28 2.26 3.46-.64 7.07-1.57 10.17-3.28 2.75-1.5 5.08-3.93 5.23-7.22.18-3.88-2.5-7.42-5.04-10.1-1.24-1.3-2.6-2.2-4.46-2.21-2.1 0-4.28.72-6.29 1.26-3.82 1.01-7.86 2.49-10.34 5.75-1.92 2.52-2.46 6.15.17 8.4a4.12 4.12 0 006.63-1.57c1.29-3.14.02-7.09-1.41-9.96-.9-1.8-2.08-3.46-3.47-4.91-1.33-1.39-2.51-1.66-4.34-.94-5.91 2.32-10.5 7.82-11.29 14.18-.36 2.94.16 5.88 1.51 8.51.18.34.7.04.52-.3"/><path fill="#C5B3A1" d="M121.22 139.73s-6.64 5.55-12.33 4.38c-5.69-1.16 9.69-4.87 9.69-4.87l2.64.5z"/><path fill="#A19193" d="M121.63 138.47c.16-2-.57-2.5-3.06-1.93-1.65.37-3.06 1.5-3.06 2.58 0 1.06 1.44 1.76 3.06 1.28 2.97-.86 2.97-.86 3.06-1.93"/><path fill="#C5B3A1" d="M133 122.75s.1-.14.19-.4c.04-.12.03-.25-.06-.28a1.16 1.16 0 00-.47-.08c-.21 0-.47 0-.73.03-.27.03-.55.05-.84.1l-.91.1-.94.13c-.3.04-.62.1-.83.17-.06.02-.08.04-.06.01.04-.04.07-.06.09-.23a.49.49 0 00-.03-.15l-.05-.07.2.12c.5.22 1.06.38 1.52.53.92.29 1.55.51 1.55.51l-.01.1s-.67.07-1.66-.01a8.3 8.3 0 01-1.72-.3c-.17-.06-.32-.08-.6-.33a.54.54 0 01-.1-.17.49.49 0 01-.06-.26c.02-.25.11-.33.2-.44.14-.12.26-.18.35-.22.39-.17.7-.21 1.05-.28.34-.05.65-.11.99-.13.32-.02.64-.06.96-.05.31 0 .62 0 .92.03.3.05.57.07.83.17.26.08.54.2.7.46.18.31 0 .57-.1.67-.22.23-.39.27-.39.27M148.08 109.39c2.2.1 2.2 1.94 0 .92-2.2-1.03 0-.92 0-.92M39.4 111.33c-1.9.24-1.42 1.85 0 .99 1.4-.86 0-1 0-1M89.34 139.36c2.75-1.32 4.93-.18 2.6.42-2.31.6-4.63.56-2.6-.42M62.67 135.47c1.52-.13 3.98 3.37.93 2.97-3.05-.4 2.05-.83-.93-1.47s-2.6-1.29 0-1.5"/><path fill="#39B56D" d="M150.66 108.2c0 1.3-1.06 2.35-2.36 2.35h-.29a2.35 2.35 0 01-2.35-2.36V80.91c0-1.3 1.05-2.36 2.35-2.36h.29c1.3 0 2.36 1.05 2.36 2.36v27.28zM141.2 100.55h-.1c-1.3 0-2.44-2.34-2.44-2.74V86.62c0-1.3 1.1-2.07 2.4-2.07h.12c1.3 0 2.48.77 2.48 2.07v11.19c0 1.3-1.16 2.74-2.46 2.74"/><path fill="#39B56D" d="M143.49 93.01c0 3.43 1.1 4.64 1.96 4.64 1.72 0 .46 4.93.46 4.93-2.54 0-7.16-.33-7.16-4.77 0-3.47 4.74-4.8 4.74-4.8M154.81 97.55h.2c1.3 0 1.65-1.7 2.65-2.1V84.27c0-1.3-1.55-2.72-2.85-2.72h-.12c-1.3 0-2.03 1.42-2.03 2.72v11.18c0 1.3.85 2.1 2.16 2.1"/><path fill="#39B56D" d="M152.42 90.66c0 3.87-1.31 4.63-2.19 4.63-1.3 0-.28 4.93-.28 4.93 1.75 0 7.21-.33 7.21-4.77 0-3.47-4.74-4.8-4.74-4.8"/><path fill="#C5B3A1" d="M141.43 109.93s-6.02.51-4.64 1.83c1.37 1.32 10.38-1.33 10.38-1.33l-5.74-.5z"/><path fill="#9F8486" d="M147.5 109.58c0-1.11-.9-2.86-2.02-2.86s-2.03 1.75-2.03 2.86c0 1.12.91 1.19 2.03 1.19 1.11 0 2.02-.07 2.02-1.19"/><path fill="#F8EDE7" d="M145.48 109.93c0-.79-.9-2.02-2.02-2.02s-2.03 1.23-2.03 2.02.9.84 2.03.84c1.11 0 2.02-.05 2.02-.84"/><g transform="translate(144 80)"><mask id="d" fill="#fff"><use xlink:href="#c"/></mask><path d="M2.8 1.03H1.33c-.24 0-.47.2-.46.45.02.25.2.45.45.45H2.8c.23 0 .46-.2.45-.45a.46.46 0 00-.45-.45" mask="url(#d)"/></g><g transform="translate(148 79)"><mask id="f" fill="#fff"><use xlink:href="#e"/></mask><path d="M.76 2.36a2.17 2.17 0 001.6-.82c.16-.2.27-.4.36-.62.04-.1 0-.26-.05-.35a.46.46 0 00-.27-.2.46.46 0 00-.34.04.52.52 0 00-.2.27c-.01.01-.04.08-.01 0 .03-.07 0 0 0 .01l-.06.1c-.03.06-.07.14-.12.18.02 0 .07-.08.03-.03L1.66 1a1.44 1.44 0 01-.16.16l-.08.07.04-.03a1.81 1.81 0 01-.3.17l-.05.02a2.12 2.12 0 01-.34.08l.12-.01-.13.01c-.23.01-.46.2-.45.45.01.23.2.46.45.45" mask="url(#f)"/></g><g transform="translate(149 83)"><mask id="h" fill="#fff"><use xlink:href="#g"/></mask><path d="M.34 1.83c.66.22 1.42.02 1.91-.46.17-.17.18-.48 0-.64a.46.46 0 00-.63 0 2.1 2.1 0 01-.08.07l-.06.04c-.07.05-.15.09-.23.12l.1-.04c-.12.05-.25.08-.38.1.04 0 .08 0 .12-.02-.13.02-.25.02-.38 0l.13.02A1.53 1.53 0 01.56.96a.45.45 0 00-.55.32c-.06.24.08.47.32.55" mask="url(#h)"/></g><g transform="translate(144 88)"><mask id="j" fill="#fff"><use xlink:href="#i"/></mask><path d="M2.5.1H.93C.7.1.47.3.48.55.5.79.68 1 .93 1H2.5c.24 0 .46-.21.45-.45A.46.46 0 002.5.1" mask="url(#j)"/></g><g transform="translate(149 92)"><mask id="l" fill="#fff"><use xlink:href="#k"/></mask><path d="M.63 1.28a1.72 1.72 0 00.99-.05c.11-.05.23-.1.33-.17s.18-.15.2-.27a.45.45 0 00-.31-.55C1.74.2 1.6.2 1.5.28l-.22.13.1-.05c-.1.04-.2.07-.3.08L1.2.43H.88L1 .45.86.42a.47.47 0 00-.34.04.45.45 0 00-.21.27.45.45 0 00.32.55" mask="url(#l)"/></g><g transform="translate(144 95)"><mask id="n" fill="#fff"><use xlink:href="#m"/></mask><path d="M2.5.06H1.42a.46.46 0 00-.31.14.46.46 0 00-.14.31c.01.25.2.45.45.45H2.5c.12 0 .24-.05.32-.13.08-.08.14-.2.13-.32A.46.46 0 002.5.06" mask="url(#n)"/></g><g transform="translate(151 89)"><mask id="p" fill="#fff"><use xlink:href="#o"/></mask><path d="M1.85.66l-.2.04.13-.01a1.45 1.45 0 01-.26.01 1.53 1.53 0 01-.36-.1l.1.05C1.16.6 1.05.55.96.47l.08.07a.7.7 0 00-.03-.03A.48.48 0 00.7.39a.45.45 0 00-.45.45c0 .11.04.25.14.32a1.89 1.89 0 001.71.38c.23-.06.4-.32.32-.55a.46.46 0 00-.56-.32" mask="url(#p)"/></g><g transform="translate(151 86)"><mask id="r" fill="#fff"><use xlink:href="#q"/></mask><path d="M2.48.76A5.96 5.96 0 001.1.43C1 .42.85.5.78.56a.46.46 0 00-.14.32c.01.12.05.24.14.32l.09.07c.07.04.14.06.22.06l.1.01-.12-.01c.4.05.8.15 1.17.3.1.04.26 0 .35-.05.1-.05.18-.16.2-.27a.45.45 0 00-.04-.34.5.5 0 00-.27-.21" mask="url(#r)"/></g><g transform="translate(155 83)"><mask id="t" fill="#fff"><use xlink:href="#s"/></mask><path d="M1.15 3.26a4 4 0 002.29-1.63c.13-.2.04-.5-.17-.62a.46.46 0 00-.61.17l-.1.12c-.03.05 0 0 .02-.01l-.05.06a3.53 3.53 0 01-.43.44l-.05.04-.03.02a.4.4 0 00-.03.02l-.06.05c-.17.11-.34.21-.52.3l-.07.03c-.06.03 0 0 .02 0-.05 0-.1.03-.15.05l-.3.1c-.23.05-.39.32-.32.55.08.23.31.37.56.31" mask="url(#t)"/></g><g transform="translate(152 81)"><mask id="v" fill="#fff"><use xlink:href="#u"/></mask><path d="M2.09 1.38a1.73 1.73 0 01-.22-.06 1.82 1.82 0 01-.4-.23l.1.07c-.12-.09-.23-.2-.32-.31l.07.09a1.73 1.73 0 01-.18-.28C1.04.45.72.37.53.5a.46.46 0 00-.17.61c.3.57.87 1.01 1.49 1.13.12.03.24.02.35-.04.09-.06.18-.16.2-.27a.46.46 0 00-.04-.35c-.06-.1-.16-.18-.27-.2" mask="url(#v)"/></g><g transform="translate(155 90)"><mask id="x" fill="#fff"><use xlink:href="#w"/></mask><path d="M1.72 2.68v.04s.03-.1 0-.02.07-.09.02-.02l.02-.02.04-.04.1-.09c.04-.03-.07.05-.02.02l.07-.05.13-.1.28-.2 1.1-.83c.1-.07.18-.14.21-.26a.47.47 0 00-.04-.35C3.5.57 3.2.45 3 .6l-1.23.9c-.2.16-.41.3-.6.46-.21.2-.34.44-.36.72-.01.24.22.46.45.45.26 0 .44-.2.45-.45" mask="url(#x)"/></g><g transform="translate(154 88)"><mask id="z" fill="#fff"><use xlink:href="#y"/></mask><path d="M1.22 2.04c.06-.12.13-.23.2-.33l-.06.09c.09-.12.2-.23.32-.32l-.1.07.18-.12c.1-.06.18-.16.2-.27A.45.45 0 001.93.8a.45.45 0 00-.27-.2.47.47 0 00-.35.04 2.24 2.24 0 00-.86.94.33.33 0 00-.05.17.33.33 0 000 .18.45.45 0 00.56.31c.1-.03.22-.1.27-.2" mask="url(#z)"/></g><g transform="translate(151 97)"><mask id="B" fill="#fff"><use xlink:href="#A"/></mask><path d="M.36.73a2.43 2.43 0 001.2.94c.17.06.34.09.52.11.1.01.25-.06.32-.13a.45.45 0 000-.64L2.3.94a.46.46 0 00-.22-.06h-.02A1.97 1.97 0 011.82.8C1.67.74 1.52.66 1.4.56l.09.07A1.9 1.9 0 011.14.3l.07.09a2.5 2.5 0 01-.07-.1.48.48 0 00-.27-.2.46.46 0 00-.34.04c-.2.12-.3.4-.17.61" mask="url(#B)"/></g><g transform="translate(155 97)"><mask id="D" fill="#fff"><use xlink:href="#C"/></mask><path d="M.73 1.32h1.96c.23 0 .46-.2.45-.45a.46.46 0 00-.45-.45H.73C.49.42.27.62.28.87c0 .24.2.45.45.45" mask="url(#D)"/></g><g transform="translate(153 94)"><mask id="F" fill="#fff"><use xlink:href="#E"/></mask><path d="M.86 1.26c.62.08 1.24.12 1.87.12.23 0 .46-.2.45-.45a.46.46 0 00-.45-.45C2.1.48 1.48.44.86.36.76.35.62.42.55.49A.46.46 0 00.4.81c.01.12.05.24.14.32.09.08.19.11.31.13" mask="url(#F)"/></g><g transform="translate(141 93)"><mask id="H" fill="#fff"><use xlink:href="#G"/></mask><path d="M1.28 1.3c.62.04 1.24-.1 1.8-.36.21-.11.29-.43.16-.62C3.1.1 2.85.05 2.62.16a2.27 2.27 0 01-.12.06c.06-.03 0 0-.01 0A2.7 2.7 0 011.8.4l.12-.02c-.21.03-.42.03-.64.02C1.05.38.82.62.83.85c.02.26.2.43.45.45" mask="url(#H)"/></g><g transform="translate(142 86)"><mask id="J" fill="#fff"><use xlink:href="#I"/></mask><path d="M.71 2.26c.41-.25.76-.58 1.03-.96a.45.45 0 00-.16-.62.46.46 0 00-.35-.05l-.1.05a.46.46 0 00-.16.16l-.08.1.07-.09c-.15.2-.32.37-.52.52l.1-.08-.28.2a.47.47 0 00-.2.26c-.04.11-.02.25.04.35.06.1.15.18.27.2.11.03.24.03.34-.04" mask="url(#J)"/></g><g transform="translate(141 82)"><mask id="L" fill="#fff"><use xlink:href="#K"/></mask><path d="M1 3.52c.05-.4.15-.8.3-1.19l.04-.14c.01-.01.07-.17.04-.08a5.26 5.26 0 01.42-.81c.12-.2.05-.5-.16-.62a.46.46 0 00-.62.16 6.63 6.63 0 00-.9 2.44c-.03.23.06.5.32.55.21.05.51-.06.55-.31" mask="url(#L)"/></g><g transform="translate(137 84)"><mask id="N" fill="#fff"><use xlink:href="#M"/></mask><path d="M1 1.17c.55.6 1.25 1.06 2.02 1.33.22.08.5-.09.55-.31.06-.26-.08-.47-.32-.56a6.38 6.38 0 01-.2-.07c-.05-.02.01 0 .03 0l-.24-.1a4.28 4.28 0 01-.66-.42c-.02 0-.03-.02-.05-.03a7.76 7.76 0 01-.5-.48C1.49.36 1.17.36 1 .53a.46.46 0 000 .64" mask="url(#N)"/></g><g transform="translate(137 88)"><mask id="P" fill="#fff"><use xlink:href="#O"/></mask><path d="M.88 1.22l.82.85a.46.46 0 00.64 0c.07-.09.13-.2.13-.32a.47.47 0 00-.14-.32L1.51.6A.46.46 0 001.2.46.45.45 0 00.75.9c0 .12.04.22.13.31" mask="url(#P)"/></g><g transform="translate(140 89)"><mask id="R" fill="#fff"><use xlink:href="#Q"/></mask><path d="M1.14 2.85a2.56 2.56 0 00.81-.52c.21-.2.4-.44.51-.7a.48.48 0 00.05-.34.45.45 0 00-.2-.27.46.46 0 00-.35-.05c-.1.04-.22.1-.27.2-.06.14-.14.27-.23.38l.07-.09c-.1.14-.23.26-.37.37l.1-.07c-.14.1-.3.2-.45.26l.1-.04H.9a.33.33 0 00-.15.08.33.33 0 00-.12.13.46.46 0 00-.05.35c.04.1.1.21.21.27.1.05.24.09.35.04" mask="url(#R)"/></g><g transform="translate(137 94)"><mask id="T" fill="#fff"><use xlink:href="#S"/></mask><path d="M2.53 1.49l-.06-.01-.11-.02a7.7 7.7 0 01-1.23-.31l-.24-.1c.1.05-.02 0-.03-.01L.72.98C.52.88.23.9.11 1.14c-.1.2-.07.5.16.61.72.34 1.47.55 2.26.64.24.02.46-.23.45-.45 0-.27-.2-.43-.45-.45" mask="url(#T)"/></g><g transform="translate(139 100)"><mask id="V" fill="#fff"><use xlink:href="#U"/></mask><path d="M2.23.36a3.33 3.33 0 01-.84.76l-.26.14-.14.06c-.05.03.1-.04 0 0l-.06.03c-.2.07-.4.13-.6.16-.23.04-.39.34-.32.56.08.25.3.36.56.31A3.8 3.8 0 002.87 1C2.94.9 3 .8 3 .68a.46.46 0 00-.13-.32c-.16-.15-.48-.2-.64 0" mask="url(#V)"/></g><g transform="translate(144 99)"><mask id="X" fill="#fff"><use xlink:href="#W"/></mask><path d="M.22 1.15c.4.49 1.07.77 1.7.72a.48.48 0 00.31-.13c.08-.08.14-.2.13-.32 0-.22-.2-.47-.45-.45h-.33l.12.01a1.71 1.71 0 01-.4-.11l.1.05A1.7 1.7 0 011.04.7l.09.08C1.03.7.94.6.86.5.79.43.65.38.54.38A.46.46 0 00.22.5.46.46 0 00.1.83c0 .13.06.22.13.32" mask="url(#X)"/></g><g transform="translate(147 101)"><mask id="Z" fill="#fff"><use xlink:href="#Y"/></mask><path d="M1.4 3.7a2.99 2.99 0 001.99-2.2c.04-.23-.07-.5-.32-.55-.22-.05-.5.07-.55.31l-.08.32-.03.08-.01.02c.03-.07-.01.02-.02.03l-.03.06-.16.29-.05.06c0 .02-.06.08-.01.02.04-.06-.02.02-.03.03l-.05.06-.22.23-.07.05-.02.02.03-.02c-.04.01-.08.06-.12.08a2.5 2.5 0 01-.27.16l-.08.03c-.07.04.1-.03.01 0l-.15.06c-.23.07-.4.31-.32.55.08.22.32.4.56.31" mask="url(#Z)"/></g><g transform="translate(144 104)"><mask id="ab" fill="#fff"><use xlink:href="#aa"/></mask><path d="M2.47 1.65l-.13.03c-.02 0-.05 0-.07.02h.03a2.2 2.2 0 01-.4 0c-.02-.01-.09-.02-.02-.01h-.03a1.97 1.97 0 01-.37-.11c-.1-.04.06.03.01 0l-.05-.02a1.92 1.92 0 01-.24-.14l-.06-.04.02.02c-.02 0-.08-.07-.1-.1a1.9 1.9 0 01-.2-.2C.73.9.39.93.24 1.1c-.18.2-.16.44 0 .64.58.72 1.6 1.02 2.48.78.23-.06.4-.33.32-.55a.46.46 0 00-.56-.32" mask="url(#ab)"/></g><g transform="translate(148 106)"><mask id="ad" fill="#fff"><use xlink:href="#ac"/></mask><path d="M1.35 2.04c.8 0 1.55-.43 1.97-1.1.13-.2.05-.51-.16-.62a.46.46 0 00-.62.16L2.5.56 2.46.6 2.5.56l-.14.16-.14.12c-.04.04.08-.05.04-.02-.02 0-.03.02-.04.03a1.76 1.76 0 01-.26.15c-.01 0-.07.05-.09.04l.05-.02a1.98 1.98 0 01-.44.12l.12-.02-.24.02c-.24 0-.46.2-.45.45 0 .24.2.45.45.45" mask="url(#ad)"/></g><path fill="#CCC" d="M55.38 26.98a12.58 12.58 0 016 .11c.25.06.5.18.75.26.25.09.5.2.73.33.23.13.49.23.7.4l.67.5.6.6c.21.18.34.44.51.67.16.23.32.46.42.73l.35.77-.06-.13c.05.11.21.23-.01.08-.08-.06-.17-.05-.26-.07-.1 0-.18.04-.2.04l-.05.03.03-.03c.07-.06.2-.23.32-.4l.38-.54c.51-.78 1.08-1.61 1.8-2.37.35-.37.75-.73 1.21-1.03.46-.3.99-.53 1.53-.66a3.9 3.9 0 011.66-.01c.27.04.52.12.76.22.25.08.47.22.7.33l-.29.7c-.22-.03-.43-.09-.65-.1a3.24 3.24 0 00-.63-.03c-.2 0-.4.03-.59.07a3.13 3.13 0 00-1.06.44c-.17.1-.32.23-.47.35-.3.25-.58.56-.84.9-.54.66-.98 1.44-1.48 2.25l-.41.63c-.16.22-.3.44-.58.7a1.5 1.5 0 01-.23.2c-.09.06-.2.13-.36.2a1.37 1.37 0 01-1.14-.02c-.66-.37-.72-.7-.9-.99l-.06-.13-.24-.55a2 2 0 00-.28-.51c-.12-.16-.2-.35-.34-.48l-.4-.45-.47-.38c-.15-.15-.35-.23-.52-.35a3.34 3.34 0 00-.55-.3c-.2-.1-.38-.2-.6-.27a16.16 16.16 0 00-5.36-.95l-.1-.76z"/><path stroke="#333" stroke-dasharray="4.15 4.15" stroke-width=".38" d="M62.81 65.58s-37.15-6.82-51.15 40.57c0 0-5.75-13.02-11.5-21.04"/></g></g></svg>