<svg width="193" height="105" viewBox="0 0 193 105" fill="none" xmlns="http://www.w3.org/2000/svg">
<path d="M18.8594 33.375V38.2734H6.74219V47.0859H16.8906V51.9844H6.74219V64.5H0.554688V33.375H18.8594ZM28.9141 41.2266V64.5H22.9609V41.2266H28.9141ZM29.6406 34.5469C29.6406 35.0625 29.5391 35.5469 29.3359 36C29.1328 36.4375 28.8594 36.8281 28.5156 37.1719C28.1719 37.5 27.7656 37.7656 27.2969 37.9688C26.8281 38.1562 26.3359 38.25 25.8203 38.25C25.3203 38.25 24.8438 38.1562 24.3906 37.9688C23.9531 37.7656 23.5625 37.5 23.2188 37.1719C22.8906 36.8281 22.625 36.4375 22.4219 36C22.2344 35.5469 22.1406 35.0625 22.1406 34.5469C22.1406 34.0312 22.2344 33.5469 22.4219 33.0938C22.625 32.6406 22.8906 32.25 23.2188 31.9219C23.5625 31.5781 23.9531 31.3125 24.3906 31.125C24.8438 30.9219 25.3203 30.8203 25.8203 30.8203C26.3359 30.8203 26.8281 30.9219 27.2969 31.125C27.7656 31.3125 28.1719 31.5781 28.5156 31.9219C28.8594 32.25 29.1328 32.6406 29.3359 33.0938C29.5391 33.5469 29.6406 34.0312 29.6406 34.5469ZM40.7266 30.8203V64.5H34.7734V30.8203H40.7266ZM62.1484 64.5C61.5859 64.5 61.1562 64.4219 60.8594 64.2656C60.5625 64.0938 60.3281 63.7578 60.1562 63.2578L59.6406 61.7109C59.0469 62.2266 58.4766 62.6797 57.9297 63.0703C57.3828 63.4609 56.8125 63.7891 56.2188 64.0547C55.6406 64.3203 55.0156 64.5156 54.3438 64.6406C53.6875 64.7812 52.9531 64.8516 52.1406 64.8516C51.1406 64.8516 50.2266 64.7188 49.3984 64.4531C48.5703 64.1719 47.8516 63.7656 47.2422 63.2344C46.6484 62.7031 46.1875 62.0469 45.8594 61.2656C45.5312 60.4688 45.3672 59.5547 45.3672 58.5234C45.3672 57.6641 45.5859 56.8047 46.0234 55.9453C46.4609 55.0859 47.2031 54.3125 48.25 53.625C49.3125 52.9219 50.7188 52.3438 52.4688 51.8906C54.2344 51.4219 56.4297 51.1562 59.0547 51.0938V49.8516C59.0547 48.3516 58.7422 47.25 58.1172 46.5469C57.4922 45.8438 56.5938 45.4922 55.4219 45.4922C54.5469 45.4922 53.8203 45.5938 53.2422 45.7969C52.6797 46 52.1797 46.2266 51.7422 46.4766C51.3047 46.7109 50.8984 46.9297 50.5234 47.1328C50.1484 47.3359 49.7266 47.4375 49.2578 47.4375C48.8516 47.4375 48.5 47.3359 48.2031 47.1328C47.9219 46.9141 47.6953 46.6562 47.5234 46.3594L46.4453 44.4844C47.7891 43.2344 49.2734 42.3047 50.8984 41.6953C52.5234 41.0859 54.2812 40.7812 56.1719 40.7812C57.5312 40.7812 58.75 41.0078 59.8281 41.4609C60.9062 41.8984 61.8203 42.5234 62.5703 43.3359C63.3203 44.1328 63.8906 45.0859 64.2812 46.1953C64.6719 47.3047 64.8672 48.5234 64.8672 49.8516V64.5H62.1484ZM53.9922 60.7969C55.0547 60.7969 55.9688 60.6094 56.7344 60.2344C57.5156 59.8438 58.2891 59.25 59.0547 58.4531V54.7031C57.5078 54.7656 56.2188 54.8984 55.1875 55.1016C54.1719 55.2891 53.3594 55.5391 52.75 55.8516C52.1406 56.1484 51.7031 56.5 51.4375 56.9062C51.1875 57.3125 51.0625 57.75 51.0625 58.2188C51.0625 59.1562 51.3203 59.8203 51.8359 60.2109C52.3672 60.6016 53.0859 60.7969 53.9922 60.7969Z" fill="white"/>
<mask id="path-2-inside-1_9_50" fill="white">
<path d="M139.216 38.429C137.042 38.429 135.274 40.1927 135.274 42.3708V62.6292C135.274 63.6746 135.69 64.6772 136.429 65.4165C137.168 66.1557 138.171 66.571 139.216 66.571C140.262 66.571 141.264 66.1557 142.004 65.4165C142.743 64.6772 143.158 63.6746 143.158 62.6292V42.3708C143.158 40.1962 141.394 38.429 139.216 38.429ZM129.126 38.7052H111.942C110.896 38.7052 109.894 39.1205 109.155 39.8598C108.415 40.599 108 41.6016 108 42.6471C108 43.6925 108.415 44.6952 109.155 45.4344C109.894 46.1736 110.896 46.589 111.942 46.589H129.126C130.171 46.589 131.174 46.1736 131.913 45.4344C132.653 44.6952 133.068 43.6925 133.068 42.6471C133.068 41.6016 132.653 40.599 131.913 39.8598C131.174 39.1205 130.171 38.7052 129.126 38.7052ZM190.79 54.3487L182.481 40.8302C181.507 39.2577 180.179 38.4998 178.497 38.4998C176.769 38.4998 175.295 39.3108 174.381 40.8302L164.766 56.7677C164.107 57.8585 163.349 58.3119 162.099 58.3119H154.948C154.815 58.3168 154.682 58.2942 154.557 58.2454C154.433 58.1967 154.32 58.1228 154.225 58.0285C154.13 57.9341 154.056 57.8213 154.007 57.697C153.958 57.5727 153.934 57.4396 153.939 57.306V42.2362C153.939 40.0652 152.179 38.429 150.008 38.429C147.837 38.429 146.076 40.0687 146.076 42.2398V60.7096C146.076 63.4862 148.818 66.1779 151.545 66.1779H165.938C167.978 66.1779 169.349 64.6904 170.514 62.6504L178.001 49.8048C178.065 49.6631 178.189 49.4825 178.33 49.4825C178.483 49.4825 178.578 49.6631 178.653 49.7942L183.554 57.6567C183.76 57.9896 183.799 58.156 183.668 58.4535C183.551 58.7262 183.285 58.7829 182.853 58.7829H175.972C174.991 58.7829 174.051 59.1725 173.357 59.8659C172.664 60.5593 172.274 61.4998 172.274 62.4804C172.274 63.4611 172.664 64.4015 173.357 65.0949C174.051 65.7884 174.991 66.1779 175.972 66.1779H187.199C189.926 66.1779 193 63.5783 193 60.1819C193 58.0285 192.586 57.2706 190.79 54.3487ZM127.235 48.7954H111.942C109.764 48.7954 108 50.5592 108 52.7373V62.3529C108 63.3984 108.415 64.401 109.155 65.1402C109.894 65.8795 110.896 66.2948 111.942 66.2948C112.987 66.2948 113.99 65.8795 114.729 65.1402C115.468 64.401 115.884 63.3984 115.884 62.3529V57.8621C115.884 57.2069 116.415 56.6792 117.067 56.6792H127.231C128.277 56.6792 129.279 56.2639 130.019 55.5246C130.758 54.7854 131.173 53.7827 131.173 52.7373C131.173 51.6918 130.758 50.6892 130.019 49.95C129.279 49.2107 128.277 48.7954 127.231 48.7954"/>
</mask>
<path d="M139.216 38.429C137.042 38.429 135.274 40.1927 135.274 42.3708V62.6292C135.274 63.6746 135.69 64.6772 136.429 65.4165C137.168 66.1557 138.171 66.571 139.216 66.571C140.262 66.571 141.264 66.1557 142.004 65.4165C142.743 64.6772 143.158 63.6746 143.158 62.6292V42.3708C143.158 40.1962 141.394 38.429 139.216 38.429ZM129.126 38.7052H111.942C110.896 38.7052 109.894 39.1205 109.155 39.8598C108.415 40.599 108 41.6016 108 42.6471C108 43.6925 108.415 44.6952 109.155 45.4344C109.894 46.1736 110.896 46.589 111.942 46.589H129.126C130.171 46.589 131.174 46.1736 131.913 45.4344C132.653 44.6952 133.068 43.6925 133.068 42.6471C133.068 41.6016 132.653 40.599 131.913 39.8598C131.174 39.1205 130.171 38.7052 129.126 38.7052ZM190.79 54.3487L182.481 40.8302C181.507 39.2577 180.179 38.4998 178.497 38.4998C176.769 38.4998 175.295 39.3108 174.381 40.8302L164.766 56.7677C164.107 57.8585 163.349 58.3119 162.099 58.3119H154.948C154.815 58.3168 154.682 58.2942 154.557 58.2454C154.433 58.1967 154.32 58.1228 154.225 58.0285C154.13 57.9341 154.056 57.8213 154.007 57.697C153.958 57.5727 153.934 57.4396 153.939 57.306V42.2362C153.939 40.0652 152.179 38.429 150.008 38.429C147.837 38.429 146.076 40.0687 146.076 42.2398V60.7096C146.076 63.4862 148.818 66.1779 151.545 66.1779H165.938C167.978 66.1779 169.349 64.6904 170.514 62.6504L178.001 49.8048C178.065 49.6631 178.189 49.4825 178.33 49.4825C178.483 49.4825 178.578 49.6631 178.653 49.7942L183.554 57.6567C183.76 57.9896 183.799 58.156 183.668 58.4535C183.551 58.7262 183.285 58.7829 182.853 58.7829H175.972C174.991 58.7829 174.051 59.1725 173.357 59.8659C172.664 60.5593 172.274 61.4998 172.274 62.4804C172.274 63.4611 172.664 64.4015 173.357 65.0949C174.051 65.7884 174.991 66.1779 175.972 66.1779H187.199C189.926 66.1779 193 63.5783 193 60.1819C193 58.0285 192.586 57.2706 190.79 54.3487ZM127.235 48.7954H111.942C109.764 48.7954 108 50.5592 108 52.7373V62.3529C108 63.3984 108.415 64.401 109.155 65.1402C109.894 65.8795 110.896 66.2948 111.942 66.2948C112.987 66.2948 113.99 65.8795 114.729 65.1402C115.468 64.401 115.884 63.3984 115.884 62.3529V57.8621C115.884 57.2069 116.415 56.6792 117.067 56.6792H127.231C128.277 56.6792 129.279 56.2639 130.019 55.5246C130.758 54.7854 131.173 53.7827 131.173 52.7373C131.173 51.6918 130.758 50.6892 130.019 49.95C129.279 49.2107 128.277 48.7954 127.231 48.7954" fill="#3D3C38"/>
<path d="M135.274 62.6292H136.274H135.274ZM129.126 38.7052V37.7052V38.7052ZM111.942 38.7052V37.7052V38.7052ZM111.942 46.589V47.589V46.589ZM129.126 46.589V47.589V46.589ZM133.068 42.6471H132.068H133.068ZM190.79 54.3487L191.642 53.8252L191.642 53.8251L190.79 54.3487ZM182.481 40.8302L183.333 40.3066L183.331 40.3037L182.481 40.8302ZM174.381 40.8302L175.238 41.3468L175.238 41.3456L174.381 40.8302ZM164.766 56.7677L165.622 57.2846L165.622 57.2843L164.766 56.7677ZM154.948 58.3119V57.3119H154.93L154.911 57.3126L154.948 58.3119ZM153.939 57.306L154.938 57.3394L154.939 57.3227V57.306H153.939ZM170.514 62.6504L169.65 62.1468L169.646 62.1544L170.514 62.6504ZM178.001 49.8048L178.865 50.3083L178.891 50.263L178.913 50.2152L178.001 49.8048ZM178.653 49.7942L177.783 50.2878L177.793 50.3057L177.804 50.3232L178.653 49.7942ZM183.554 57.6567L184.405 57.1315L184.403 57.1276L183.554 57.6567ZM183.668 58.4535L182.753 58.0504L182.749 58.0596L183.668 58.4535ZM175.972 58.7829V59.7829V58.7829ZM115.884 62.3529H116.884H115.884ZM127.231 56.6792V57.6792V56.6792ZM139.216 37.429C136.49 37.429 134.274 39.6398 134.274 42.3708H136.274C136.274 40.7456 137.593 39.429 139.216 39.429V37.429ZM134.274 42.3708V62.6292H136.274V42.3708H134.274ZM134.274 62.6292C134.274 63.9398 134.795 65.1968 135.722 66.1236L137.136 64.7094C136.584 64.1577 136.274 63.4094 136.274 62.6292H134.274ZM135.722 66.1236C136.649 67.0504 137.906 67.571 139.216 67.571V65.571C138.436 65.571 137.688 65.2611 137.136 64.7094L135.722 66.1236ZM139.216 67.571C140.527 67.571 141.784 67.0504 142.711 66.1236L141.296 64.7094C140.745 65.2611 139.996 65.571 139.216 65.571V67.571ZM142.711 66.1236C143.637 65.1968 144.158 63.9398 144.158 62.6292H142.158C142.158 63.4094 141.848 64.1577 141.296 64.7094L142.711 66.1236ZM144.158 62.6292V42.3708H142.158V62.6292H144.158ZM144.158 42.3708C144.158 39.6445 141.947 37.429 139.216 37.429V39.429C140.842 39.429 142.158 40.7479 142.158 42.3708H144.158ZM129.126 37.7052H111.942V39.7052H129.126V37.7052ZM111.942 37.7052C110.631 37.7052 109.374 38.2259 108.447 39.1526L109.862 40.5669C110.413 40.0151 111.162 39.7052 111.942 39.7052V37.7052ZM108.447 39.1526C107.521 40.0794 107 41.3364 107 42.6471H109C109 41.8668 109.31 41.1186 109.862 40.5669L108.447 39.1526ZM107 42.6471C107 43.9577 107.521 45.2147 108.447 46.1415L109.862 44.7273C109.31 44.1756 109 43.4273 109 42.6471H107ZM108.447 46.1415C109.374 47.0683 110.631 47.589 111.942 47.589V45.589C111.162 45.589 110.413 45.279 109.862 44.7273L108.447 46.1415ZM111.942 47.589H129.126V45.589H111.942V47.589ZM129.126 47.589C130.437 47.589 131.694 47.0683 132.62 46.1415L131.206 44.7273C130.655 45.279 129.906 45.589 129.126 45.589V47.589ZM132.62 46.1415C133.547 45.2147 134.068 43.9577 134.068 42.6471H132.068C132.068 43.4273 131.758 44.1756 131.206 44.7273L132.62 46.1415ZM134.068 42.6471C134.068 41.3364 133.547 40.0794 132.62 39.1526L131.206 40.5669C131.758 41.1186 132.068 41.8668 132.068 42.6471H134.068ZM132.62 39.1526C131.694 38.2259 130.437 37.7052 129.126 37.7052V39.7052C129.906 39.7052 130.655 40.0151 131.206 40.5669L132.62 39.1526ZM191.642 53.8251L183.333 40.3066L181.629 41.3538L189.938 54.8724L191.642 53.8251ZM183.331 40.3037C182.19 38.4611 180.553 37.4998 178.497 37.4998V39.4998C179.805 39.4998 180.824 40.0543 181.631 41.3568L183.331 40.3037ZM178.497 37.4998C176.422 37.4998 174.621 38.4914 173.524 40.3148L175.238 41.3456C175.969 40.1303 177.115 39.4998 178.497 39.4998V37.4998ZM173.525 40.3136L163.91 56.2511L165.622 57.2843L175.238 41.3468L173.525 40.3136ZM163.91 56.2508C163.635 56.7051 163.389 56.9458 163.15 57.085C162.916 57.2219 162.601 57.3119 162.099 57.3119V59.3119C162.847 59.3119 163.536 59.1752 164.158 58.8127C164.776 58.4525 165.237 57.9211 165.622 57.2846L163.91 56.2508ZM162.099 57.3119H154.948V59.3119H162.099V57.3119ZM154.911 57.3126C154.915 57.3124 154.919 57.313 154.922 57.3143L154.192 59.1765C154.445 59.2754 154.715 59.3212 154.985 59.3112L154.911 57.3126ZM154.922 57.3143C154.925 57.3156 154.928 57.3176 154.931 57.3201L153.519 58.7368C153.711 58.9281 153.94 59.0777 154.192 59.1765L154.922 57.3143ZM154.931 57.3201C154.933 57.3227 154.935 57.3257 154.937 57.329L153.077 58.065C153.177 58.3169 153.327 58.5456 153.519 58.7368L154.931 57.3201ZM154.937 57.329C154.938 57.3323 154.939 57.3359 154.938 57.3394L152.94 57.2726C152.93 57.5434 152.977 57.8131 153.077 58.065L154.937 57.329ZM154.939 57.306V42.2362H152.939V57.306H154.939ZM154.939 42.2362C154.939 39.4714 152.689 37.429 150.008 37.429V39.429C151.669 39.429 152.939 40.659 152.939 42.2362H154.939ZM150.008 37.429C147.326 37.429 145.076 39.4762 145.076 42.2398H147.076C147.076 40.6613 148.348 39.429 150.008 39.429V37.429ZM145.076 42.2398V60.7096H147.076V42.2398H145.076ZM145.076 60.7096C145.076 62.4217 145.913 64.0314 147.083 65.1942C148.252 66.3563 149.86 67.1779 151.545 67.1779V65.1779C150.502 65.1779 149.376 64.6537 148.493 63.7758C147.61 62.8986 147.076 61.7742 147.076 60.7096H145.076ZM151.545 67.1779H165.938V65.1779H151.545V67.1779ZM165.938 67.1779C168.565 67.1779 170.192 65.2303 171.382 63.1464L169.646 62.1544C168.505 64.1506 167.392 65.1779 165.938 65.1779V67.1779ZM171.378 63.154L178.865 50.3083L177.137 49.3012L169.65 62.1469L171.378 63.154ZM178.913 50.2152C178.912 50.2164 178.912 50.2175 178.91 50.2208C178.909 50.223 178.899 50.2377 178.879 50.2601C178.861 50.2802 178.815 50.3279 178.735 50.3748C178.653 50.4235 178.513 50.4825 178.33 50.4825V48.4825C177.832 48.4825 177.516 48.7859 177.394 48.921C177.247 49.0833 177.149 49.2611 177.089 49.3944L178.913 50.2152ZM178.33 50.4825C177.973 50.4825 177.781 50.2635 177.758 50.2364C177.739 50.2136 177.733 50.2018 177.741 50.215C177.751 50.2305 177.758 50.2442 177.783 50.2878L179.522 49.3006C179.504 49.268 179.41 49.092 179.283 48.942C179.156 48.7918 178.84 48.4825 178.33 48.4825V50.4825ZM177.804 50.3232L182.706 58.1857L184.403 57.1276L179.501 49.2651L177.804 50.3232ZM182.703 58.1818C182.745 58.2491 182.761 58.2815 182.767 58.2936C182.771 58.3027 182.758 58.276 182.749 58.2245C182.745 58.1986 182.743 58.1706 182.744 58.1417C182.744 58.1129 182.747 58.0882 182.751 58.0688C182.758 58.0321 182.765 58.0218 182.753 58.0504L184.583 58.8566C184.693 58.6065 184.784 58.2889 184.725 57.9122C184.673 57.5818 184.517 57.3127 184.405 57.1316L182.703 58.1818ZM182.749 58.0596C182.77 58.0088 182.812 57.9414 182.88 57.8797C182.946 57.8196 183.009 57.7907 183.042 57.7788C183.071 57.7686 183.075 57.7716 183.037 57.7757C183 57.7798 182.942 57.7829 182.853 57.7829V59.7829C183.084 59.7829 183.407 59.7724 183.715 59.6622C184.088 59.529 184.409 59.2623 184.587 58.8475L182.749 58.0596ZM182.853 57.7829H175.972V59.7829H182.853V57.7829ZM175.972 57.7829C174.726 57.7829 173.531 58.2778 172.65 59.1588L174.064 60.573C174.57 60.0671 175.256 59.7829 175.972 59.7829V57.7829ZM172.65 59.1588C171.769 60.0397 171.274 61.2346 171.274 62.4804H173.274C173.274 61.765 173.558 61.0789 174.064 60.573L172.65 59.1588ZM171.274 62.4804C171.274 63.7263 171.769 64.9211 172.65 65.802L174.064 64.3878C173.558 63.882 173.274 63.1958 173.274 62.4804H171.274ZM172.65 65.802C173.531 66.683 174.726 67.1779 175.972 67.1779V65.1779C175.256 65.1779 174.57 64.8937 174.064 64.3878L172.65 65.802ZM175.972 67.1779H187.199V65.1779H175.972V67.1779ZM187.199 67.1779C188.865 67.1779 190.555 66.3944 191.818 65.1719C193.09 63.9396 194 62.1918 194 60.1819H192C192 61.5684 191.373 62.8186 190.426 63.7352C189.47 64.6616 188.259 65.1779 187.199 65.1779V67.1779ZM194 60.1819C194 59.0245 193.887 58.1614 193.497 57.1836C193.131 56.2626 192.525 55.2626 191.642 53.8252L189.938 54.8723C190.85 56.3567 191.35 57.1967 191.639 57.9234C191.906 58.5933 192 59.1859 192 60.1819H194ZM127.235 47.7954H111.942V49.7954H127.235V47.7954ZM111.942 47.7954C109.211 47.7954 107 50.0069 107 52.7373H109C109 51.1114 110.316 49.7954 111.942 49.7954V47.7954ZM107 52.7373V62.3529H109V52.7373H107ZM107 62.3529C107 63.6636 107.521 64.9206 108.447 65.8473L109.862 64.4331C109.31 63.8814 109 63.1331 109 62.3529H107ZM108.447 65.8473C109.374 66.7741 110.631 67.2948 111.942 67.2948V65.2948C111.162 65.2948 110.413 64.9848 109.862 64.4331L108.447 65.8473ZM111.942 67.2948C113.253 67.2948 114.51 66.7741 115.436 65.8473L114.022 64.4331C113.47 64.9848 112.722 65.2948 111.942 65.2948V67.2948ZM115.436 65.8473C116.363 64.9206 116.884 63.6636 116.884 62.3529H114.884C114.884 63.1331 114.574 63.8814 114.022 64.4331L115.436 65.8473ZM116.884 62.3529V57.8621H114.884V62.3529H116.884ZM116.884 57.8621C116.884 57.7611 116.965 57.6792 117.067 57.6792V55.6792C115.865 55.6792 114.884 56.6526 114.884 57.8621H116.884ZM117.067 57.6792H127.231V55.6792H117.067V57.6792ZM127.231 57.6792C128.542 57.6792 129.799 57.1585 130.726 56.2317L129.311 54.8175C128.76 55.3692 128.011 55.6792 127.231 55.6792L127.231 57.6792ZM130.726 56.2317C131.652 55.3049 132.173 54.048 132.173 52.7373H130.173C130.173 53.5175 129.863 54.2658 129.311 54.8175L130.726 56.2317ZM132.173 52.7373C132.173 51.4266 131.652 50.1696 130.726 49.2429L129.311 50.6571C129.863 51.2088 130.173 51.9571 130.173 52.7373H132.173ZM130.726 49.2429C129.799 48.3161 128.542 47.7954 127.231 47.7954L127.231 49.7954C128.011 49.7954 128.76 50.1054 129.311 50.6571L130.726 49.2429Z" fill="#6A6A6A" mask="url(#path-2-inside-1_9_50)"/>
</svg>
