<svg width="43" height="47" viewBox="0 0 43 47" fill="none" xmlns="http://www.w3.org/2000/svg">
<path d="M21.5 37.6C17.0209 37.6 13.0613 35.0933 10.75 31.3333C10.8038 27.4167 17.9167 25.2625 21.5 25.2625C25.0834 25.2625 32.1963 27.4167 32.25 31.3333C31.0658 33.2614 29.4658 34.8414 27.5911 35.9343C25.7165 37.0271 23.6247 37.5991 21.5 37.6ZM21.5 9.79166C22.9256 9.79166 24.2927 10.4106 25.3007 11.5124C26.3088 12.6142 26.875 14.1085 26.875 15.6667C26.875 17.2248 26.3088 18.7191 25.3007 19.8209C24.2927 20.9227 22.9256 21.5417 21.5 21.5417C20.0745 21.5417 18.7073 20.9227 17.6993 19.8209C16.6913 18.7191 16.125 17.2248 16.125 15.6667C16.125 14.1085 16.6913 12.6142 17.6993 11.5124C18.7073 10.4106 20.0745 9.79166 21.5 9.79166ZM21.5 3.91666C19.1472 3.91666 16.8174 4.4232 14.6436 5.40736C12.4699 6.39151 10.4948 7.83401 8.83104 9.65249C5.47102 13.3251 3.58337 18.3062 3.58337 23.5C3.58337 28.6938 5.47102 33.6749 8.83104 37.3475C10.4948 39.166 12.4699 40.6085 14.6436 41.5926C16.8174 42.5768 19.1472 43.0833 21.5 43.0833C26.2518 43.0833 30.809 41.0201 34.169 37.3475C37.5291 33.6749 39.4167 28.6938 39.4167 23.5C39.4167 12.6704 31.3542 3.91666 21.5 3.91666Z" fill="black"/>
</svg>
