<svg width="47" height="47" viewBox="0 0 47 47" fill="none" xmlns="http://www.w3.org/2000/svg">
<path d="M33.2917 35.25C31.118 35.25 29.375 36.9929 29.375 39.1667C29.375 40.2054 29.7877 41.2016 30.5222 41.9362C31.2567 42.6707 32.2529 43.0833 33.2917 43.0833C34.3305 43.0833 35.3267 42.6707 36.0612 41.9362C36.7957 41.2016 37.2084 40.2054 37.2084 39.1667C37.2084 38.1279 36.7957 37.1317 36.0612 36.3972C35.3267 35.6626 34.3305 35.25 33.2917 35.25ZM1.95837 3.91666V7.83333H5.87504L12.925 22.6971L10.2617 27.495C9.96796 28.0433 9.79171 28.6896 9.79171 29.375C9.79171 30.4138 10.2044 31.41 10.9389 32.1445C11.6734 32.879 12.6696 33.2917 13.7084 33.2917H37.2084V29.375H14.5309C14.401 29.375 14.2765 29.3234 14.1847 29.2316C14.0929 29.1398 14.0413 29.0153 14.0413 28.8854C14.0413 28.7875 14.0609 28.7092 14.1 28.6504L15.8625 25.4583H30.4521C31.9209 25.4583 33.2134 24.6358 33.8792 23.4412L40.89 10.7708C41.0271 10.4575 41.125 10.1246 41.125 9.79166C41.125 9.27228 40.9187 8.77417 40.5515 8.40691C40.1842 8.03965 39.6861 7.83333 39.1667 7.83333H10.203L8.36212 3.91666M13.7084 35.25C11.5346 35.25 9.79171 36.9929 9.79171 39.1667C9.79171 40.2054 10.2044 41.2016 10.9389 41.9362C11.6734 42.6707 12.6696 43.0833 13.7084 43.0833C14.7471 43.0833 15.7434 42.6707 16.4779 41.9362C17.2124 41.2016 17.625 40.2054 17.625 39.1667C17.625 38.1279 17.2124 37.1317 16.4779 36.3972C15.7434 35.6626 14.7471 35.25 13.7084 35.25Z" fill="black"/>
</svg>
