<svg width="205" height="85" viewBox="0 0 205 85" fill="none" xmlns="http://www.w3.org/2000/svg">
<path d="M6.59375 17.375C6.85938 17.375 7.08594 17.3906 7.27344 17.4219C7.46094 17.4375 7.625 17.4844 7.76562 17.5625C7.92188 17.625 8.0625 17.7188 8.1875 17.8438C8.32812 17.9688 8.48438 18.1328 8.65625 18.3359L23.9844 38.5391C23.8906 37.5078 23.8438 36.5312 23.8438 35.6094V17.375H29.2578V48.5H26.0938C25.6094 48.5 25.2031 48.4219 24.875 48.2656C24.5625 48.0938 24.25 47.8203 23.9375 47.4453L8.65625 27.3594C8.75 28.3281 8.79688 29.2266 8.79688 30.0547V48.5H3.35938V17.375H6.59375ZM41.0234 25.2266V48.5H35.0703V25.2266H41.0234ZM41.75 18.5469C41.75 19.0625 41.6484 19.5469 41.4453 20C41.2422 20.4375 40.9688 20.8281 40.625 21.1719C40.2812 21.5 39.875 21.7656 39.4062 21.9688C38.9375 22.1562 38.4453 22.25 37.9297 22.25C37.4297 22.25 36.9531 22.1562 36.5 21.9688C36.0625 21.7656 35.6719 21.5 35.3281 21.1719C35 20.8281 34.7344 20.4375 34.5312 20C34.3438 19.5469 34.25 19.0625 34.25 18.5469C34.25 18.0312 34.3438 17.5469 34.5312 17.0938C34.7344 16.6406 35 16.25 35.3281 15.9219C35.6719 15.5781 36.0625 15.3125 36.5 15.125C36.9531 14.9219 37.4297 14.8203 37.9297 14.8203C38.4453 14.8203 38.9375 14.9219 39.4062 15.125C39.875 15.3125 40.2812 15.5781 40.625 15.9219C40.9688 16.25 41.2422 16.6406 41.4453 17.0938C41.6484 17.5469 41.75 18.0312 41.75 18.5469ZM52.4141 14.8203V33.9922H53.3281C53.7031 33.9922 53.9844 33.9375 54.1719 33.8281C54.375 33.7188 54.5781 33.5156 54.7812 33.2188L59.0469 26.2344C59.2812 25.9219 59.5469 25.6797 59.8438 25.5078C60.1562 25.3203 60.5391 25.2266 60.9922 25.2266H66.4297L60.8047 33.7812C60.5391 34.125 60.2578 34.4297 59.9609 34.6953C59.6797 34.9609 59.3672 35.2031 59.0234 35.4219C59.3359 35.6562 59.6094 35.9297 59.8438 36.2422C60.0938 36.5391 60.3359 36.8672 60.5703 37.2266L66.6875 48.5H61.3438C60.4375 48.5 59.7812 48.1562 59.375 47.4688L55.1094 38.7969C54.9219 38.4375 54.7188 38.2031 54.5 38.0938C54.2969 37.9844 54 37.9297 53.6094 37.9297H52.4141V48.5H46.4609V14.8203H52.4141ZM78.3359 24.8516C79.8047 24.8516 81.1562 25.0938 82.3906 25.5781C83.625 26.0469 84.6875 26.7344 85.5781 27.6406C86.4688 28.5312 87.1641 29.6328 87.6641 30.9453C88.1641 32.2578 88.4141 33.7578 88.4141 35.4453C88.4141 35.8984 88.3906 36.2734 88.3438 36.5703C88.2969 36.8516 88.2188 37.0781 88.1094 37.25C88.0156 37.4219 87.875 37.5469 87.6875 37.625C87.5156 37.6875 87.2969 37.7188 87.0312 37.7188H73.1094C73.2031 38.8438 73.4062 39.8203 73.7188 40.6484C74.0312 41.4766 74.4453 42.1562 74.9609 42.6875C75.4766 43.2188 76.0859 43.6172 76.7891 43.8828C77.4922 44.1328 78.2734 44.2578 79.1328 44.2578C79.9922 44.2578 80.7344 44.1562 81.3594 43.9531C82 43.7344 82.5547 43.5078 83.0234 43.2734C83.5078 43.0234 83.9375 42.7969 84.3125 42.5938C84.6875 42.375 85.0547 42.2656 85.4141 42.2656C85.8516 42.2656 86.2109 42.4453 86.4922 42.8047L88.2031 45.0078C87.5625 45.7578 86.8516 46.3828 86.0703 46.8828C85.2891 47.3672 84.4766 47.7578 83.6328 48.0547C82.8047 48.3359 81.9609 48.5391 81.1016 48.6641C80.2422 48.7891 79.4141 48.8516 78.6172 48.8516C77.0078 48.8516 75.5078 48.5859 74.1172 48.0547C72.7266 47.5234 71.5156 46.7344 70.4844 45.6875C69.4531 44.625 68.6406 43.3203 68.0469 41.7734C67.4688 40.2109 67.1797 38.4062 67.1797 36.3594C67.1797 34.7812 67.4375 33.2969 67.9531 31.9062C68.4688 30.5 69.2031 29.2812 70.1562 28.25C71.125 27.2031 72.2969 26.375 73.6719 25.7656C75.0469 25.1562 76.6016 24.8516 78.3359 24.8516ZM78.4531 29.0938C76.9375 29.0938 75.75 29.5391 74.8906 30.4297C74.0312 31.3047 73.4766 32.5469 73.2266 34.1562H83.0703C83.0703 33.4844 82.9766 32.8438 82.7891 32.2344C82.6172 31.625 82.3359 31.0859 81.9453 30.6172C81.5703 30.1484 81.0938 29.7812 80.5156 29.5156C79.9375 29.2344 79.25 29.0938 78.4531 29.0938Z" fill="white"/>
<path d="M144.977 52.748C143.955 53.1646 142.913 53.5325 141.855 53.8505C140.484 54.2741 139.087 54.6084 137.673 54.8515C136.536 55.0668 135.379 55.152 134.224 55.1053C132.935 55.035 131.675 54.6964 130.524 54.1113C128.974 53.3305 127.756 52.018 127.094 50.4135C126.536 48.7631 126.469 46.986 126.902 45.2983C127.515 42.7238 128.614 40.2898 130.139 38.1268C131.142 36.6445 132.271 35.2533 133.415 33.8778C134.535 32.5314 135.67 31.1979 136.821 29.8773C136.081 31.0984 135.462 32.3891 134.974 33.7308C134.567 34.8084 134.287 35.9303 134.141 37.0733C133.957 38.3718 134.115 39.6959 134.6 40.9145C135.27 42.3977 136.5 43.5553 138.021 44.1345C139.083 44.5187 140.207 44.698 141.336 44.663C143.093 44.5933 144.838 44.3346 146.54 43.8913C148.448 43.4514 150.346 42.9737 152.235 42.458C163.76 39.322 198.375 30.005 198.375 30.005C198.375 30.005 158.381 47.19 144.977 52.748Z" stroke="#DDDDDD" stroke-width="0.5" stroke-linecap="round" stroke-linejoin="round"/>
</svg>
