<svg width="233" height="73" viewBox="0 0 233 73" fill="none" xmlns="http://www.w3.org/2000/svg">
<path d="M9.35938 31.6953V42.5H3.19531V11.375H13.2031C15.2188 11.375 16.9531 11.625 18.4062 12.125C19.8594 12.625 21.0625 13.3203 22.0156 14.2109C22.9688 15.0859 23.6719 16.1328 24.125 17.3516C24.5781 18.5703 24.8047 19.9062 24.8047 21.3594C24.8047 22.8906 24.5625 24.2891 24.0781 25.5547C23.6094 26.8203 22.8906 27.9062 21.9219 28.8125C20.9688 29.7188 19.7656 30.4297 18.3125 30.9453C16.8594 31.4453 15.1562 31.6953 13.2031 31.6953H9.35938ZM9.35938 26.9141H13.2031C15.0781 26.9141 16.4531 26.4219 17.3281 25.4375C18.2031 24.4375 18.6406 23.0781 18.6406 21.3594C18.6406 19.75 18.1953 18.4766 17.3047 17.5391C16.4141 16.5859 15.0469 16.1094 13.2031 16.1094H9.35938V26.9141ZM34.5078 19.2266V34.0156C34.5078 35.3594 34.8125 36.3984 35.4219 37.1328C36.0312 37.8672 36.9453 38.2344 38.1641 38.2344C39.0547 38.2344 39.8984 38.0391 40.6953 37.6484C41.4922 37.2422 42.2422 36.6953 42.9453 36.0078V19.2266H48.8984V42.5H45.2422C44.8672 42.5 44.5469 42.4141 44.2812 42.2422C44.0312 42.0547 43.8672 41.7812 43.7891 41.4219L43.3672 39.7344C42.4453 40.6562 41.4219 41.4062 40.2969 41.9844C39.1875 42.5625 37.8672 42.8516 36.3359 42.8516C35.0703 42.8516 33.9531 42.6328 32.9844 42.1953C32.0156 41.7578 31.2031 41.1484 30.5469 40.3672C29.8906 39.5859 29.3906 38.6562 29.0469 37.5781C28.7188 36.5 28.5547 35.3125 28.5547 34.0156V19.2266H34.5078ZM54.8281 42.5V19.2266H58.4844C58.8594 19.2266 59.1719 19.3125 59.4219 19.4844C59.6875 19.6562 59.8594 19.9219 59.9375 20.2812L60.3359 21.9219C60.7578 21.4844 61.1875 21.0781 61.625 20.7031C62.0781 20.3281 62.5625 20.0078 63.0781 19.7422C63.5938 19.4609 64.1406 19.2422 64.7188 19.0859C65.3125 18.9297 65.9609 18.8516 66.6641 18.8516C68.1484 18.8516 69.3672 19.25 70.3203 20.0469C71.2891 20.8281 72.0078 21.8672 72.4766 23.1641C72.8516 22.3984 73.3125 21.7422 73.8594 21.1953C74.4219 20.6484 75.0391 20.2031 75.7109 19.8594C76.3828 19.5156 77.0859 19.2656 77.8203 19.1094C78.5703 18.9375 79.3203 18.8516 80.0703 18.8516C81.3828 18.8516 82.5469 19.0547 83.5625 19.4609C84.5938 19.8516 85.4531 20.4297 86.1406 21.1953C86.8438 21.9453 87.375 22.8672 87.7344 23.9609C88.0938 25.0547 88.2734 26.2969 88.2734 27.6875V42.5H82.3203V27.6875C82.3203 24.8906 81.0703 23.4922 78.5703 23.4922C78.0078 23.4922 77.4844 23.5859 77 23.7734C76.5156 23.9453 76.0859 24.2109 75.7109 24.5703C75.3516 24.9141 75.0625 25.3516 74.8438 25.8828C74.6406 26.3984 74.5391 27 74.5391 27.6875V42.5H68.5859V27.6875C68.5859 26.1875 68.2734 25.1172 67.6484 24.4766C67.0234 23.8203 66.1172 23.4922 64.9297 23.4922C64.1328 23.4922 63.3906 23.6719 62.7031 24.0312C62.0156 24.3906 61.375 24.8984 60.7812 25.5547V42.5H54.8281ZM109.367 42.5C108.805 42.5 108.375 42.4219 108.078 42.2656C107.781 42.0938 107.547 41.7578 107.375 41.2578L106.859 39.7109C106.266 40.2266 105.695 40.6797 105.148 41.0703C104.602 41.4609 104.031 41.7891 103.438 42.0547C102.859 42.3203 102.234 42.5156 101.562 42.6406C100.906 42.7812 100.172 42.8516 99.3594 42.8516C98.3594 42.8516 97.4453 42.7188 96.6172 42.4531C95.7891 42.1719 95.0703 41.7656 94.4609 41.2344C93.8672 40.7031 93.4062 40.0469 93.0781 39.2656C92.75 38.4688 92.5859 37.5547 92.5859 36.5234C92.5859 35.6641 92.8047 34.8047 93.2422 33.9453C93.6797 33.0859 94.4219 32.3125 95.4688 31.625C96.5312 30.9219 97.9375 30.3438 99.6875 29.8906C101.453 29.4219 103.648 29.1562 106.273 29.0938V27.8516C106.273 26.3516 105.961 25.25 105.336 24.5469C104.711 23.8438 103.812 23.4922 102.641 23.4922C101.766 23.4922 101.039 23.5938 100.461 23.7969C99.8984 24 99.3984 24.2266 98.9609 24.4766C98.5234 24.7109 98.1172 24.9297 97.7422 25.1328C97.3672 25.3359 96.9453 25.4375 96.4766 25.4375C96.0703 25.4375 95.7188 25.3359 95.4219 25.1328C95.1406 24.9141 94.9141 24.6562 94.7422 24.3594L93.6641 22.4844C95.0078 21.2344 96.4922 20.3047 98.1172 19.6953C99.7422 19.0859 101.5 18.7812 103.391 18.7812C104.75 18.7812 105.969 19.0078 107.047 19.4609C108.125 19.8984 109.039 20.5234 109.789 21.3359C110.539 22.1328 111.109 23.0859 111.5 24.1953C111.891 25.3047 112.086 26.5234 112.086 27.8516V42.5H109.367ZM101.211 38.7969C102.273 38.7969 103.188 38.6094 103.953 38.2344C104.734 37.8438 105.508 37.25 106.273 36.4531V32.7031C104.727 32.7656 103.438 32.8984 102.406 33.1016C101.391 33.2891 100.578 33.5391 99.9688 33.8516C99.3594 34.1484 98.9219 34.5 98.6562 34.9062C98.4062 35.3125 98.2812 35.75 98.2812 36.2188C98.2812 37.1562 98.5391 37.8203 99.0547 38.2109C99.5859 38.6016 100.305 38.7969 101.211 38.7969Z" fill="white"/>
<path d="M172.77 13.9595C172.395 14.018 172.035 15.3995 171.31 16.1195C170.779 16.6385 170.118 16.6055 169.765 17.2475C169.633 17.4875 169.675 17.897 169.525 18.29C169.228 19.076 168.186 19.1465 168.186 20.0045C168.183 20.9285 169.056 21.1055 169.812 21.7625C170.401 22.2905 170.458 22.655 171.174 22.9115C171.783 23.1185 172.689 22.4405 173.506 22.6835C174.178 22.8845 174.82 23.0285 174.972 23.7185C175.105 24.3515 174.963 25.337 174.15 25.223C173.875 25.193 172.686 24.7925 171.225 24.947C169.464 25.148 167.452 25.7225 167.256 27.6875C167.148 28.7855 168.505 30.08 169.816 29.8175C170.724 29.6375 170.295 28.5695 170.788 28.049C171.436 27.3845 175.105 30.374 178.515 30.374C179.952 30.374 181.02 30.0095 182.08 28.8995C182.178 28.814 182.299 28.6325 182.452 28.622C182.596 28.6325 182.85 28.775 182.932 28.8365C185.679 31.043 187.755 35.471 197.85 35.5235C199.27 35.531 200.887 36.209 202.207 37.4135C203.385 38.504 204.075 40.1975 204.742 41.915C205.753 44.495 207.564 47.003 210.309 49.796C210.459 49.946 212.719 51.701 212.899 51.833C212.929 51.851 213.094 52.2485 213.037 52.4705C212.97 54.1445 212.727 59.0105 216.355 59.2325C217.242 59.2775 217.009 58.6535 217.009 58.223C217.009 57.3755 216.853 56.534 217.3 55.6655C217.912 54.473 216.004 53.9225 216.06 51.341C216.099 49.4165 214.483 49.745 213.663 48.278C213.19 47.429 212.77 46.979 212.8 45.938C212.985 40.0925 211.555 36.251 210.844 35.3075C210.289 34.595 209.829 34.3115 210.337 33.9815C213.366 31.982 213.615 31.499 214.414 30.404C215.974 28.2665 217.474 23.1605 219.469 21.638C219.873 21.3245 220.903 20.555 221.536 20.252C223.399 19.373 224.382 18.842 224.922 18.314C225.778 17.48 226.092 15.455 225.273 14.399C224.253 13.0985 222.486 14.132 221.707 14.594C216.139 17.897 215.317 23.726 213.39 27.074C211.852 29.7485 209.35 31.712 207.114 31.874C205.437 31.997 203.629 31.658 201.829 30.869C197.452 28.949 195.057 26.471 194.493 26.033C193.317 25.1255 184.188 16.163 176.79 15.7985C176.79 15.7985 175.872 13.9595 175.641 13.9295C175.101 13.8605 174.546 15.0275 174.15 15.1625C173.776 15.287 173.149 13.898 172.773 13.9595" stroke="#DDDDDD" stroke-width="0.5" stroke-linecap="round" stroke-linejoin="round"/>
</svg>
