<svg width="158" height="35" viewBox="0 0 158 35" fill="none" xmlns="http://www.w3.org/2000/svg">
<path d="M6.496 0.507998V10.84C6.496 11.224 6.58 11.5 6.748 11.668C6.94 11.836 7.348 11.92 7.972 11.92H10.636V15.34H6.064C4.696 15.34 3.592 15.196 2.752 14.908C1.936 14.62 1.324 14.116 0.916 13.396C0.532 12.652 0.28 11.86 0.16 11.02C0.0640001 10.18 0.0160001 9.052 0.0160001 7.636C0.0160001 6.196 0.0640001 5.104 0.16 4.36C0.28 3.616 0.532 2.92 0.916 2.272C1.324 1.624 1.936 1.168 2.752 0.903999C3.592 0.639998 4.696 0.507998 6.064 0.507998H6.496ZM12.076 11.92H12.508C13.54 11.92 14.332 11.944 14.884 11.992C15.46 12.016 16.012 12.124 16.54 12.316C17.068 12.484 17.428 12.688 17.62 12.928C17.836 13.168 18.028 13.588 18.196 14.188C18.388 14.764 18.496 15.388 18.52 16.06C18.544 16.732 18.556 17.692 18.556 18.94C18.556 20.188 18.544 21.184 18.52 21.928C18.496 22.648 18.388 23.344 18.196 24.016C18.028 24.664 17.836 25.12 17.62 25.384C17.428 25.648 17.068 25.888 16.54 26.104C16.012 26.296 15.46 26.416 14.884 26.464C14.332 26.488 13.54 26.5 12.508 26.5H12.076V11.92ZM0.52 18.472H5.056C5.392 18.472 5.596 18.52 5.668 18.616C5.74 18.712 5.776 18.916 5.776 19.228V22.036C5.776 22.42 5.824 22.696 5.92 22.864C6.04 23.008 6.316 23.08 6.748 23.08H10.636V26.5H5.344C3.592 26.5 2.26 26.2 1.348 25.6C0.46 25 0.0160001 23.956 0.0160001 22.468V19.228C0.0160001 18.724 0.184 18.472 0.52 18.472ZM7.936 0.471998H12.508C14.26 0.471998 15.58 0.771999 16.468 1.372C17.38 1.972 17.836 3.016 17.836 4.504V7.744C17.836 8.248 17.668 8.5 17.332 8.5H12.796C12.46 8.5 12.256 8.452 12.184 8.356C12.112 8.26 12.076 8.056 12.076 7.744V4.936C12.076 4.552 12.016 4.288 11.896 4.144C11.8 3.976 11.536 3.892 11.104 3.892H7.936V0.471998ZM28.9968 8.5H32.4888C34.8648 8.5 36.3288 8.908 36.8808 9.724C37.1448 10.108 37.3488 10.48 37.4928 10.84C37.6608 11.2 37.7688 11.764 37.8168 12.532C37.9368 13.924 37.9968 15.472 37.9968 17.176C37.9968 18.88 37.9848 20.116 37.9608 20.884C37.9368 21.628 37.8528 22.396 37.7088 23.188C37.5888 23.956 37.4208 24.52 37.2048 24.88C36.9888 25.216 36.6648 25.528 36.2328 25.816C35.8008 26.104 35.2968 26.296 34.7208 26.392C34.1448 26.464 33.4008 26.5 32.4888 26.5H28.9968V23.8H30.9408C31.5648 23.8 31.9608 23.716 32.1288 23.548C32.3208 23.38 32.4168 23.116 32.4168 22.756V12.28C32.4168 11.896 32.3208 11.62 32.1288 11.452C31.9608 11.284 31.5648 11.2 30.9408 11.2H28.9968V8.5ZM27.9168 34.528H25.7208C24.6648 34.528 23.8608 34.264 23.3088 33.736C22.7808 33.232 22.5168 32.572 22.5168 31.756V11.272C22.5168 10.456 22.7808 9.796 23.3088 9.292C23.8608 8.764 24.6648 8.5 25.7208 8.5H27.9168V34.528ZM48.3319 8.5H51.8239C52.7359 8.5 53.4799 8.548 54.0559 8.644C54.6319 8.716 55.1359 8.896 55.5679 9.184C55.9999 9.472 56.3239 9.796 56.5399 10.156C56.7559 10.492 56.9239 11.044 57.0439 11.812C57.2359 12.892 57.3319 14.404 57.3319 16.348C57.3319 18.292 57.3199 19.612 57.2959 20.308C57.2719 20.98 57.2239 21.7 57.1519 22.468C57.1039 23.236 56.9959 23.8 56.8279 24.16C56.6839 24.52 56.4799 24.892 56.2159 25.276C55.9759 25.636 55.6519 25.888 55.2439 26.032C54.3559 26.344 53.2159 26.5 51.8239 26.5H51.7519V12.928C51.7519 12.88 51.7519 12.736 51.7519 12.496C51.7519 12.256 51.7399 12.052 51.7159 11.884C51.5959 11.428 51.1159 11.2 50.2759 11.2H48.3319V8.5ZM47.2519 8.5V22.072C47.2519 22.12 47.2519 22.264 47.2519 22.504C47.2519 22.744 47.2759 22.948 47.3239 23.116C47.4199 23.572 47.8879 23.8 48.7279 23.8H50.6719V26.5H47.1799C46.2679 26.5 45.5239 26.464 44.9479 26.392C44.3719 26.296 43.8679 26.104 43.4359 25.816C43.0039 25.528 42.6799 25.216 42.4639 24.88C42.2479 24.52 42.0679 23.956 41.9239 23.188C41.7559 22.108 41.6719 20.596 41.6719 18.652C41.6719 16.708 41.6839 15.4 41.7079 14.728C41.7319 14.032 41.7679 13.3 41.8159 12.532C41.8879 11.764 41.9959 11.2 42.1399 10.84C42.3079 10.48 42.5119 10.12 42.7519 9.76C43.0159 9.376 43.3519 9.112 43.7599 8.968C44.6479 8.656 45.7879 8.5 47.1799 8.5H47.2519ZM65.1119 8.5H69.4319C69.5759 8.5 69.6479 8.584 69.6479 8.752V10.948C69.6479 11.116 69.5519 11.2 69.3599 11.2H67.7399C67.1639 11.2 66.8279 11.308 66.7319 11.524C66.6359 11.836 66.5879 12.184 66.5879 12.568V23.728C66.5879 24.544 66.3119 25.216 65.7599 25.744C65.2319 26.248 64.4399 26.5 63.3839 26.5H61.1879V12.496C61.1879 11.08 61.4999 10.06 62.1239 9.436C62.7719 8.812 63.7679 8.5 65.1119 8.5ZM81.5484 26.212C81.5484 26.356 81.4764 26.452 81.3324 26.5H78.5964C76.8444 26.5 75.5724 26.152 74.7804 25.456C73.9884 24.76 73.5924 23.536 73.5924 21.784V11.272H71.7564C71.1564 11.272 70.8564 10.912 70.8564 10.192V8.5H73.5924V0.471998H75.7884C76.8444 0.471998 77.6364 0.735998 78.1644 1.264C78.7164 1.792 78.9924 2.464 78.9924 3.28V22.432C78.9924 23.32 79.4964 23.764 80.5044 23.764H81.2604C81.4524 23.764 81.5484 23.848 81.5484 24.016V26.212ZM82.6644 8.5V10.192C82.6644 10.912 82.3644 11.272 81.7644 11.272H79.8924V8.5H82.6644ZM85.0255 8.536H87.2215C88.2775 8.536 89.0695 8.8 89.5975 9.328C90.1495 9.832 90.4255 10.492 90.4255 11.308V26.5H86.3215C85.9375 26.5 85.6255 26.368 85.3855 26.104C85.1455 25.84 85.0255 25.492 85.0255 25.06V8.536ZM85.2775 0.868C85.5415 0.603999 86.3095 0.471998 87.5815 0.471998C88.8535 0.471998 89.6215 0.603999 89.8855 0.868C90.1495 1.108 90.2815 1.828 90.2815 3.028C90.2815 4.228 90.1375 4.96 89.8495 5.224C89.5855 5.488 88.8295 5.62 87.5815 5.62C86.3335 5.62 85.5655 5.488 85.2775 5.224C85.0135 4.96 84.8815 4.228 84.8815 3.028C84.8815 1.828 85.0135 1.108 85.2775 0.868Z" fill="black"/>
<path d="M103.301 11.2H101.357C100.733 11.2 100.325 11.284 100.133 11.452C99.9648 11.62 99.8808 11.896 99.8808 12.28V22.756C99.8808 23.116 99.9648 23.38 100.133 23.548C100.325 23.716 100.733 23.8 101.357 23.8H103.301V26.5H99.8088C98.8968 26.5 98.1528 26.464 97.5768 26.392C97.0008 26.296 96.4968 26.104 96.0648 25.816C95.6328 25.528 95.3088 25.216 95.0928 24.88C94.8768 24.52 94.6968 23.956 94.5528 23.188C94.3848 22.108 94.3008 20.596 94.3008 18.652C94.3008 16.708 94.3128 15.4 94.3368 14.728C94.3608 14.032 94.3968 13.3 94.4448 12.532C94.5168 11.764 94.6248 11.2 94.7688 10.84C94.9368 10.48 95.1408 10.12 95.3808 9.76C95.6448 9.376 95.9808 9.112 96.3888 8.968C97.2768 8.656 98.4168 8.5 99.8088 8.5H103.301V11.2ZM104.381 8.5H106.577C107.633 8.5 108.425 8.764 108.953 9.292C109.505 9.796 109.781 10.456 109.781 11.272V31.756C109.781 32.572 109.505 33.232 108.953 33.736C108.425 34.264 107.633 34.528 106.577 34.528H104.381V8.5ZM113.852 8.5H117.956C118.34 8.5 118.652 8.632 118.892 8.896C119.132 9.16 119.252 9.508 119.252 9.94V22.72C119.252 23.104 119.336 23.38 119.504 23.548C119.696 23.716 120.104 23.8 120.728 23.8H122.816V26.5H117.776C115.16 26.5 113.852 25.216 113.852 22.648V8.5ZM130.736 26.248C130.736 26.416 130.676 26.5 130.556 26.5H126.92C125.864 26.5 125.06 26.248 124.508 25.744C123.98 25.216 123.716 24.544 123.716 23.728V8.5H127.82C128.204 8.5 128.516 8.632 128.756 8.896C128.996 9.16 129.116 9.508 129.116 9.94V22.432C129.116 23.176 129.272 23.596 129.584 23.692C129.752 23.764 129.98 23.8 130.268 23.8H130.448C130.64 23.8 130.736 23.884 130.736 24.052V26.248ZM138.975 26.5H138.903C136.527 26.5 135.063 26.092 134.511 25.276C134.247 24.892 134.031 24.52 133.863 24.16C133.719 23.8 133.623 23.236 133.575 22.468C133.455 21.076 133.395 19.528 133.395 17.824C133.395 16.12 133.407 14.896 133.431 14.152C133.455 13.384 133.527 12.616 133.647 11.848C133.791 11.056 133.971 10.492 134.187 10.156C134.403 9.796 134.727 9.472 135.159 9.184C135.591 8.896 136.095 8.716 136.671 8.644C137.247 8.548 137.991 8.5 138.903 8.5H138.975V26.5ZM148.551 20.812V22.648C148.551 25.216 147.243 26.5 144.627 26.5H140.091V23.8H142.035C142.539 23.8 142.851 23.728 142.971 23.584C143.091 23.416 143.151 23.128 143.151 22.72V21.568C143.151 21.208 143.187 21.004 143.259 20.956C143.355 20.908 143.415 20.884 143.439 20.884C143.463 20.86 143.523 20.848 143.619 20.848C143.739 20.824 143.823 20.812 143.871 20.812C145.431 20.812 146.991 20.812 148.551 20.812ZM140.091 8.5H144.267C145.923 8.5 147.051 8.824 147.651 9.472C148.251 10.12 148.551 11.08 148.551 12.352V15.52C148.551 17.68 147.375 18.76 145.023 18.76H139.731V16.06H141.675C142.251 16.06 142.635 15.988 142.827 15.844C143.043 15.7 143.151 15.424 143.151 15.016V12.28C143.151 11.872 143.091 11.596 142.971 11.452C142.851 11.284 142.539 11.2 142.035 11.2H140.091V8.5ZM157.642 26.068C157.642 26.356 157.474 26.5 157.138 26.5C155.626 26.5 154.45 26.5 153.61 26.5C152.77 26.5 152.326 26.476 152.278 26.428C152.23 26.38 152.194 26.26 152.17 26.068V21.424C152.194 21.232 152.23 21.112 152.278 21.064C152.326 21.016 152.446 20.992 152.638 20.992C154.126 20.992 155.626 20.992 157.138 20.992C157.474 20.992 157.642 21.136 157.642 21.424V26.068Z" fill="#52D627"/>
</svg>
